<?xml version="1.0" standalone="no"?>
<!DOCTYPE svg PUBLIC "-//W3C//DTD SVG 20010904//EN"
 "http://www.w3.org/TR/2001/REC-SVG-20010904/DTD/svg10.dtd">
<svg version="1.0" xmlns="http://www.w3.org/2000/svg"
 width="1076.000000pt" height="1076.000000pt" viewBox="0 0 1076.000000 1076.000000"
 preserveAspectRatio="xMidYMid meet">
<metadata>
Created by potrace 1.14, written by Peter Selinger 2001-2017
</metadata>
<g transform="translate(0.000000,1076.000000) scale(0.100000,-0.100000)"
fill="#000000" stroke="none">
<path d="M6797 10543 c-6 -10 -117 -26 -172 -25 -16 0 -111 3 -210 7 -133 5
-192 4 -225 -6 -25 -7 -94 -14 -155 -16 -60 -3 -114 -8 -120 -12 -5 -5 -31
-12 -57 -15 -26 -4 -50 -11 -53 -17 -4 -5 -25 -9 -48 -9 -24 0 -51 -6 -62 -14
-11 -7 -38 -16 -60 -19 -60 -8 -139 -28 -150 -38 -5 -5 -18 -9 -30 -9 -12 0
-30 -7 -41 -15 -10 -8 -32 -15 -47 -15 -15 0 -30 -7 -33 -15 -4 -8 -17 -15
-29 -15 -13 0 -27 -4 -30 -10 -3 -5 -13 -10 -22 -10 -8 0 -30 -7 -49 -15 -19
-8 -49 -22 -68 -30 -19 -8 -37 -15 -42 -15 -15 0 -84 -34 -84 -42 0 -4 -16 -8
-35 -8 -22 0 -38 -6 -41 -15 -4 -8 -16 -15 -29 -15 -12 0 -28 -7 -35 -15 -7
-8 -18 -15 -25 -15 -16 0 -73 -29 -80 -41 -4 -5 -14 -9 -24 -9 -10 0 -24 -7
-31 -15 -7 -8 -21 -15 -31 -15 -11 0 -19 -3 -19 -7 0 -5 -25 -19 -55 -32 -30
-14 -55 -28 -55 -33 0 -4 -9 -8 -20 -8 -11 0 -20 -4 -20 -10 0 -5 -7 -10 -15
-10 -9 0 -18 -6 -21 -14 -3 -8 -16 -17 -30 -20 -13 -4 -24 -11 -24 -16 0 -6
-6 -10 -13 -10 -7 0 -24 -11 -39 -24 -14 -14 -43 -34 -64 -45 -21 -11 -60 -40
-88 -63 -55 -48 -426 -415 -426 -422 0 -3 -13 -20 -30 -38 -16 -18 -30 -36
-30 -41 0 -4 -15 -25 -34 -45 -37 -40 -118 -148 -129 -172 -4 -8 -16 -28 -26
-45 -11 -16 -20 -47 -20 -68 -1 -21 -8 -45 -16 -53 -8 -9 -15 -28 -15 -43 0
-32 -61 -101 -90 -101 -15 0 -158 -106 -204 -152 -22 -21 -45 -38 -52 -38 -21
0 -164 -149 -164 -171 0 -11 -7 -22 -15 -25 -32 -13 -7 -80 55 -143 19 -20 50
-57 69 -81 19 -25 76 -87 127 -137 76 -76 91 -97 87 -115 -4 -13 -9 -25 -12
-28 -3 -3 -16 -25 -29 -50 -26 -51 -44 -83 -53 -90 -3 -3 -14 -21 -25 -40 -10
-19 -25 -41 -31 -48 -7 -7 -13 -22 -13 -33 0 -10 -4 -19 -10 -19 -5 0 -12 -11
-16 -25 -3 -14 -10 -25 -15 -25 -5 0 -9 -8 -9 -19 0 -10 -7 -24 -15 -31 -8 -7
-15 -20 -15 -30 0 -10 -7 -23 -15 -30 -8 -7 -15 -19 -15 -27 0 -8 -7 -21 -15
-29 -8 -9 -15 -24 -15 -35 0 -10 -4 -19 -10 -19 -5 0 -10 -7 -10 -16 0 -8 -7
-22 -15 -30 -8 -9 -15 -28 -15 -44 0 -16 -4 -31 -9 -35 -14 -8 -41 -65 -41
-85 0 -10 -7 -23 -15 -30 -8 -7 -15 -22 -15 -34 0 -11 -7 -30 -15 -40 -8 -11
-15 -31 -15 -44 0 -13 -7 -30 -15 -38 -8 -9 -15 -24 -15 -35 0 -10 -4 -19 -10
-19 -5 0 -10 -20 -10 -45 0 -25 -4 -45 -9 -45 -5 0 -13 -10 -16 -22 -4 -13
-12 -36 -20 -53 -7 -16 -18 -43 -25 -60 -7 -16 -19 -42 -26 -57 -8 -14 -14
-51 -14 -81 0 -30 -7 -68 -15 -83 -8 -16 -15 -44 -15 -61 0 -18 -4 -33 -10
-33 -5 0 -10 -24 -10 -54 0 -34 -5 -56 -12 -58 -19 -7 -29 -227 -11 -256 12
-19 17 -21 35 -11 12 6 32 23 45 38 63 69 106 111 114 111 5 0 9 4 9 8 0 8
128 141 179 186 25 22 44 46 58 74 3 8 19 28 34 45 l29 31 0 -26 c0 -14 -6
-28 -12 -31 -10 -3 -13 -66 -12 -271 0 -265 0 -267 -20 -262 -27 7 -225 -13
-248 -25 -10 -5 -36 -9 -58 -9 -22 0 -57 -7 -77 -15 -19 -8 -57 -15 -82 -15
-26 0 -56 -7 -67 -15 -10 -8 -29 -15 -41 -15 -13 0 -23 -4 -23 -10 0 -5 -21
-10 -47 -10 -27 0 -61 -7 -77 -15 -15 -8 -38 -15 -51 -15 -12 0 -28 -7 -35
-15 -7 -8 -29 -15 -49 -15 -20 0 -58 -12 -86 -25 -27 -14 -62 -25 -77 -25 -15
0 -33 -7 -42 -15 -8 -8 -26 -15 -39 -15 -14 0 -30 -7 -37 -15 -7 -8 -21 -15
-31 -15 -18 0 -37 -8 -79 -32 -8 -4 -22 -11 -30 -15 -8 -3 -19 -12 -23 -20 -4
-7 -13 -13 -18 -13 -6 0 -17 -6 -24 -12 -33 -30 -45 -38 -54 -38 -6 0 -14 -6
-18 -14 -4 -7 -19 -16 -33 -19 -73 -17 -99 -26 -138 -50 -23 -15 -44 -27 -47
-27 -3 0 -16 -11 -29 -25 -13 -14 -26 -25 -30 -25 -13 0 -156 -145 -156 -157
0 -7 -3 -13 -8 -13 -4 0 -16 -17 -26 -37 -10 -21 -22 -45 -27 -53 -5 -8 -12
-22 -15 -30 -3 -8 -11 -26 -17 -39 -20 -40 -15 -132 8 -158 22 -26 76 -31 94
-9 11 14 40 22 113 33 34 5 38 3 43 -23 4 -16 14 -45 24 -64 14 -29 24 -36 61
-42 47 -8 63 -23 56 -51 -13 -53 68 -165 136 -189 16 -6 28 -14 28 -19 0 -5
68 -9 150 -9 87 0 150 -4 150 -9 0 -6 32 -13 70 -17 39 -4 73 -11 76 -15 3 -5
49 -9 102 -9 58 -1 113 -7 137 -15 22 -8 69 -15 106 -15 36 0 70 -5 76 -11 6
-6 46 -15 89 -20 152 -16 223 -28 243 -38 11 -6 33 -11 49 -11 16 0 43 -7 58
-15 16 -8 42 -15 57 -15 16 0 36 -4 46 -9 15 -9 85 -22 196 -38 22 -3 49 -12
60 -19 11 -8 42 -14 70 -14 28 0 56 -5 62 -11 6 -6 53 -16 105 -21 170 -16
193 -20 201 -34 4 -8 19 -14 32 -14 14 0 25 -4 25 -10 0 -5 17 -12 38 -16 20
-4 42 -9 47 -13 10 -6 110 -26 200 -39 28 -4 56 -11 64 -16 7 -5 22 -9 32 -10
11 -1 19 -4 19 -8 0 -5 0 -12 0 -17 0 -5 -11 -12 -25 -15 -14 -4 -25 -11 -25
-16 0 -6 -7 -10 -16 -10 -8 0 -22 -7 -30 -15 -9 -8 -23 -15 -33 -15 -10 0 -31
-12 -46 -26 -16 -15 -50 -40 -77 -56 -26 -16 -48 -34 -48 -39 0 -5 -5 -9 -11
-9 -16 0 -84 -54 -167 -135 -40 -38 -81 -74 -90 -79 -19 -11 -72 -67 -72 -77
0 -3 -15 -22 -32 -41 -49 -52 -111 -127 -131 -159 -11 -16 -23 -29 -28 -29 -5
0 -9 -8 -9 -19 0 -10 -7 -24 -15 -31 -8 -7 -15 -21 -15 -30 0 -10 -3 -20 -7
-22 -17 -7 -43 -109 -43 -165 0 -109 67 -143 223 -112 54 11 58 11 92 -15 69
-53 59 -56 -197 -56 -1090 -1 -2153 1 -2157 5 -2 3 2 16 9 30 9 17 22 25 39
25 14 0 41 13 58 28 18 15 51 42 73 61 22 18 40 39 40 45 0 7 12 25 28 42 15
16 34 43 42 59 8 17 21 34 27 38 7 4 13 17 13 27 0 11 4 20 9 20 5 0 20 20 32
45 12 25 26 45 31 45 4 0 8 8 8 19 0 10 7 24 15 31 8 7 15 21 15 31 0 11 4 19
8 19 15 0 42 77 42 122 0 38 -5 50 -37 81 -26 27 -45 37 -67 37 -31 0 -31 0
-31 57 0 36 -4 58 -12 61 -8 2 -13 22 -13 52 0 30 -5 52 -15 60 -8 7 -15 19
-15 27 0 8 -6 20 -13 28 -6 7 -21 25 -31 39 -10 14 -23 26 -27 26 -5 0 -44 24
-87 52 -43 29 -91 61 -107 70 -24 14 -30 23 -27 48 2 30 -11 70 -44 132 -8 14
-14 36 -14 47 0 12 -4 21 -9 21 -5 0 -11 18 -15 40 -3 22 -11 40 -16 40 -6 0
-10 4 -10 9 0 5 -18 28 -40 51 -22 23 -40 47 -40 53 0 38 -206 187 -260 187
-9 0 -25 7 -36 15 -27 21 -351 21 -409 0 -22 -8 -50 -15 -62 -15 -13 0 -23 -4
-23 -10 0 -5 -7 -10 -16 -10 -20 0 -101 -37 -109 -50 -3 -5 -15 -10 -26 -10
-10 0 -19 -4 -19 -9 0 -5 -10 -13 -22 -17 -12 -3 -30 -14 -40 -24 -18 -17 -18
-20 2 -116 12 -55 26 -124 31 -154 16 -86 96 -382 141 -520 191 -595 495
-1166 886 -1665 l78 -100 200 -7 c109 -4 415 -10 679 -13 444 -6 1104 -15
2330 -35 270 -4 526 -12 571 -18 44 -7 208 -14 365 -16 156 -3 329 -10 384
-15 55 -6 116 -9 135 -7 19 2 101 4 182 5 l146 1 39 39 c45 47 63 68 63 75 0
3 11 17 25 32 14 15 25 33 25 41 0 8 7 21 15 29 8 9 15 24 15 33 0 10 7 35 15
54 16 38 23 200 11 252 -4 19 -20 39 -43 55 -28 19 -32 26 -19 28 22 5 85 -43
96 -73 5 -13 14 -26 19 -30 6 -3 11 -15 11 -26 0 -21 28 -58 79 -104 78 -69
107 -103 130 -153 14 -28 26 -50 29 -48 8 8 42 -34 42 -53 0 -15 7 -19 33 -17
19 0 31 -4 30 -10 -1 -6 8 -10 20 -9 12 1 30 3 40 4 13 1 17 10 17 40 0 36 -2
39 -35 45 -39 8 -54 24 -34 37 20 13 29 11 29 -6 0 -8 2 -15 5 -15 10 0 75 45
75 53 0 4 -18 7 -40 7 -33 0 -40 3 -40 20 0 27 -28 26 -32 -2 -2 -16 -10 -22
-30 -23 -16 0 -28 3 -28 8 0 8 -11 23 -42 58 -10 10 -18 22 -18 27 0 4 -11 19
-25 34 -14 15 -25 31 -25 35 0 14 -102 113 -116 113 -8 0 -14 4 -14 9 0 16 21
24 33 12 6 -6 21 -11 33 -11 13 0 25 -4 28 -9 12 -20 182 -61 250 -61 68 0
157 44 142 69 -3 4 6 6 19 3 14 -2 32 -1 41 2 28 11 -4 36 -45 36 -27 0 -32
-3 -21 -10 11 -7 7 -10 -17 -10 -17 0 -34 4 -37 8 -3 5 -44 12 -90 15 -61 4
-100 13 -139 31 -30 15 -70 26 -90 26 -19 0 -48 6 -64 14 -15 8 -55 26 -88 41
-80 36 -119 57 -126 68 -8 12 -118 27 -254 36 -60 3 -117 11 -125 16 -8 5 -60
13 -115 17 -55 4 -165 11 -245 17 -80 5 -463 10 -851 10 l-706 1 -25 24 c-14
12 -34 26 -44 30 -16 6 -16 9 -4 17 12 8 10 9 -7 4 -12 -3 -51 1 -88 10 -36 8
-91 15 -121 15 -51 0 -54 2 -54 24 0 14 5 28 10 31 5 3 10 13 10 22 0 9 7 21
16 27 22 16 4 61 -26 63 -23 2 -69 -23 -83 -44 -4 -7 -17 -13 -27 -13 -10 0
-22 -4 -25 -10 -3 -5 -21 -10 -38 -10 -18 0 -45 -7 -61 -15 -46 -24 -51 -20
-48 37 2 29 8 57 13 62 5 6 9 20 9 33 0 13 7 26 15 29 8 4 15 13 15 21 0 8 11
29 25 47 14 18 25 37 25 42 0 5 27 36 60 69 33 33 77 84 98 112 20 29 40 53
43 53 3 0 35 28 70 62 36 35 93 86 127 113 34 28 62 53 62 56 0 4 11 10 25 13
14 4 25 11 25 16 0 6 11 10 24 10 13 0 26 4 28 8 2 5 35 31 73 57 39 27 72 52
75 55 3 4 15 10 28 14 12 4 22 12 22 17 0 5 9 9 19 9 11 0 22 4 26 9 3 6 27
20 53 33 26 12 72 39 103 59 31 20 81 49 110 64 30 15 66 34 81 41 14 8 36 14
47 14 12 0 21 5 21 10 0 6 10 10 23 10 13 0 32 7 43 15 10 8 32 15 47 15 15 0
30 7 33 15 4 8 15 15 25 15 10 0 19 4 19 9 0 5 15 13 33 16 17 4 37 11 42 15
6 4 22 10 38 14 15 3 27 11 27 16 0 6 15 10 34 10 30 0 66 11 131 40 11 5 37
11 59 15 39 6 45 9 104 38 19 9 46 17 62 17 16 0 31 4 34 9 3 5 22 12 41 15
19 4 35 11 35 15 0 5 21 11 46 14 27 3 54 13 68 26 12 11 34 21 49 21 14 0 28
4 31 9 3 5 34 12 68 16 35 4 77 13 93 20 30 13 48 16 200 34 89 10 271 5 325
-10 19 -5 79 -9 133 -9 75 0 99 3 103 14 7 19 -13 56 -30 56 -8 0 -19 7 -26
15 -7 8 -24 15 -39 15 -15 0 -33 6 -39 13 -9 8 -64 13 -182 15 -138 3 -170 6
-170 18 0 8 9 14 20 14 11 0 23 7 26 15 4 8 14 15 23 15 33 1 80 60 83 106 2
22 -18 97 -33 126 -5 10 -9 26 -9 36 0 10 -7 27 -15 38 -8 10 -15 26 -15 35 0
9 -7 22 -15 29 -8 7 -15 29 -15 49 0 20 -11 59 -25 86 -13 28 -25 64 -25 82 0
17 -6 38 -13 45 -8 7 -17 31 -21 52 -4 21 -12 47 -17 57 -5 11 -13 28 -19 39
-5 11 -10 28 -10 37 0 10 -7 31 -15 47 -8 15 -15 36 -15 45 0 9 -7 25 -15 35
-8 11 -15 28 -15 38 0 11 -11 31 -25 46 -14 15 -25 34 -25 42 0 9 -7 25 -15
36 -8 10 -15 25 -15 33 0 21 -33 91 -42 91 -4 0 -8 7 -8 15 0 9 -7 18 -15 21
-8 4 -15 16 -15 29 0 12 -7 28 -15 35 -8 7 -15 19 -15 26 0 8 -4 14 -9 14 -5
0 -12 11 -15 25 -4 14 -11 25 -16 25 -6 0 -10 8 -10 19 0 10 -7 24 -15 31 -8
7 -15 17 -15 23 0 18 -33 87 -42 87 -4 0 -8 9 -8 19 0 11 -4 22 -9 25 -8 5
-27 37 -68 119 -8 15 -19 27 -24 27 -5 0 -9 8 -9 19 0 10 -6 24 -13 30 -8 6
-22 29 -32 51 -10 22 -22 40 -27 40 -4 0 -8 6 -8 14 0 8 -6 21 -12 28 -7 7
-19 25 -27 39 -7 15 -39 54 -70 88 -66 72 -68 74 -106 126 -16 22 -50 61 -76
87 -26 26 -65 69 -86 95 -46 56 -371 383 -382 383 -4 0 -27 18 -51 41 -24 23
-64 56 -89 75 -25 19 -62 48 -81 64 -40 34 -158 120 -165 120 -2 0 -16 11 -31
25 -15 14 -32 25 -38 25 -6 0 -23 11 -38 25 -14 13 -38 27 -52 31 -14 3 -26
10 -26 15 0 5 -7 9 -15 9 -9 0 -26 11 -38 24 -12 13 -51 39 -87 57 -36 19 -69
39 -73 46 -4 7 -19 13 -32 13 -14 0 -25 4 -25 8 0 10 -71 42 -92 42 -9 0 -21
7 -28 15 -7 8 -25 15 -40 15 -16 0 -30 3 -32 8 -6 14 -70 42 -97 42 -15 0 -36
7 -47 15 -10 8 -35 15 -54 15 -20 0 -41 5 -47 11 -7 7 -35 15 -63 20 -66 10
-147 48 -129 60 11 6 11 11 2 20 -6 6 -9 19 -6 28 4 13 3 14 -5 2 -9 -12 -13
-12 -26 -2 -9 8 -16 9 -16 3 0 -6 -16 -9 -35 -8 -35 3 -36 3 -29 -28 6 -33 24
-60 24 -37 0 7 5 9 10 6 5 -3 10 -15 10 -26 0 -13 7 -19 21 -19 14 0 24 -10
31 -28 7 -19 25 -35 49 -45 26 -11 41 -25 45 -42 7 -30 34 -34 34 -5 0 17 7
20 39 20 63 0 64 -25 1 -50 -19 -7 -58 -38 -86 -67 l-51 -54 -34 34 c-47 48
-69 76 -69 86 0 5 -24 28 -54 52 -30 24 -57 54 -60 66 -3 12 -22 36 -41 54
-27 26 -35 41 -35 69 1 33 28 80 47 80 4 0 33 23 63 51 30 27 79 66 108 86 28
20 52 40 52 45 0 4 7 8 15 8 8 0 15 4 15 9 0 5 10 13 22 17 12 3 28 13 36 20
18 18 37 18 52 -1 14 -17 56 -20 65 -5 12 19 43 11 49 -13 3 -12 14 -32 26
-44 11 -12 20 -26 20 -31 0 -11 88 -92 101 -92 5 0 9 -3 9 -8 0 -15 66 -40
120 -47 66 -8 56 -8 154 1 74 7 81 9 118 46 28 28 38 46 38 69 0 26 -3 30 -17
24 -10 -4 -42 -9 -70 -12 -29 -3 -53 -10 -53 -14 0 -13 -177 -11 -185 1 -3 6
-14 10 -24 10 -28 0 -102 59 -114 91 -6 16 -15 29 -19 29 -4 0 -8 15 -8 33 0
42 -10 55 -49 67 -32 9 -58 3 -93 -22 -38 -27 -31 19 18 115 8 16 14 37 14 48
0 10 4 19 9 19 5 0 12 12 16 27 11 44 26 44 50 -1 21 -40 23 -41 76 -44 30 -2
69 -1 87 3 30 6 32 8 32 49 0 63 -18 75 -120 78 l-85 3 38 38 c20 21 37 44 37
51 0 7 29 43 65 81 36 38 65 76 65 83 0 7 4 10 10 7 5 -3 12 4 16 17 3 13 22
36 43 53 20 16 50 46 66 67 17 20 33 37 37 38 3 0 33 26 66 58 33 31 92 86
131 122 40 36 85 77 101 93 16 15 34 27 40 27 6 0 18 6 25 13 35 31 45 37 60
37 9 0 18 7 21 15 4 8 14 15 23 15 9 0 28 10 42 23 29 26 58 45 79 53 8 3 23
10 33 15 10 6 36 19 58 31 21 11 42 24 45 29 3 5 13 9 24 9 10 0 20 7 24 15 3
8 16 15 30 15 21 0 99 33 146 61 8 5 22 12 30 15 8 3 38 17 65 30 28 13 55 24
61 24 7 0 17 7 24 15 7 8 27 15 45 15 18 0 46 7 61 15 16 8 37 15 46 15 9 0
20 5 23 10 3 6 14 10 23 10 9 0 30 7 46 15 15 8 36 15 45 15 9 0 25 7 35 15
11 8 30 15 42 15 13 0 26 5 29 10 3 6 15 10 25 10 10 0 25 7 34 15 9 9 33 15
64 15 32 0 54 5 62 15 7 9 29 15 51 15 22 0 39 4 39 9 0 4 28 12 62 15 35 4
67 11 73 15 5 5 53 11 105 15 52 3 97 11 98 16 4 12 413 13 483 1 47 -8 173 7
239 28 19 6 82 12 139 12 57 0 102 1 100 3 -2 2 -51 20 -109 40 -108 38 -213
56 -223 39z m-3460 -2268 c0 -8 -4 -12 -9 -9 -4 3 -8 9 -8 15 0 5 4 9 8 9 5 0
9 -7 9 -15z m1143 -680 c30 -30 60 -55 65 -55 6 0 26 -14 45 -31 60 -53 117
-99 123 -99 4 0 22 -16 42 -35 l35 -36 0 -94 c0 -52 4 -97 10 -100 6 -3 10
-30 10 -58 0 -29 7 -65 15 -81 9 -16 15 -55 15 -90 0 -35 7 -73 15 -90 8 -15
15 -44 15 -62 0 -19 4 -42 10 -52 5 -9 12 -43 15 -74 4 -32 11 -58 16 -58 5 0
9 -24 9 -54 0 -35 5 -58 15 -66 10 -8 15 -30 15 -64 0 -29 4 -56 10 -62 5 -5
12 -36 15 -69 4 -33 10 -69 15 -80 5 -11 11 -49 13 -84 3 -35 10 -68 16 -74 6
-6 11 -34 11 -63 0 -34 5 -56 15 -64 10 -9 15 -32 15 -74 0 -55 14 -114 40
-171 4 -11 11 -42 13 -70 3 -27 10 -51 16 -53 6 -2 11 -23 11 -46 0 -57 34
-92 73 -77 19 8 27 18 27 35 0 13 5 26 11 28 5 2 13 24 16 48 3 25 9 50 13 55
4 6 10 35 14 66 3 30 12 73 20 95 l15 39 0 -52 c1 -28 5 -54 10 -58 5 -3 13
-30 16 -60 4 -31 11 -58 16 -61 5 -3 9 -16 9 -28 0 -13 7 -29 15 -36 8 -7 15
-26 15 -42 0 -16 4 -37 9 -46 5 -10 12 -38 16 -62 4 -25 11 -49 16 -54 5 -6 9
-22 9 -36 0 -14 7 -35 15 -46 8 -10 15 -28 15 -40 0 -11 5 -25 10 -30 6 -6 13
-24 16 -40 3 -16 9 -33 15 -38 5 -6 9 -22 9 -36 0 -14 7 -35 15 -46 8 -10 15
-31 15 -45 0 -15 7 -32 15 -39 9 -8 15 -29 15 -56 0 -23 5 -46 10 -49 6 -3 10
-21 10 -39 0 -19 7 -39 15 -46 8 -7 15 -23 15 -35 0 -12 7 -28 15 -35 8 -7 15
-20 15 -29 0 -9 12 -24 25 -34 25 -18 25 -18 75 33 34 34 50 59 50 76 0 26 28
86 43 92 4 2 16 23 27 47 11 24 24 47 30 50 5 3 10 19 10 35 0 15 7 30 15 34
8 3 15 17 15 31 0 14 4 25 9 25 5 0 12 13 16 30 4 16 11 30 16 30 5 0 9 15 9
34 0 18 7 39 15 46 8 7 15 19 15 26 0 8 11 32 25 54 14 22 25 44 25 50 0 5 9
27 20 47 l20 38 0 -56 c0 -41 7 -69 25 -103 15 -27 25 -64 25 -87 0 -26 5 -42
15 -45 8 -4 15 -17 15 -29 0 -13 4 -26 9 -29 5 -4 12 -25 16 -48 8 -43 10 -50
38 -106 18 -35 15 -52 -7 -52 -8 0 -19 -7 -26 -15 -7 -8 -19 -15 -26 -15 -21
0 -84 -43 -84 -58 0 -15 -28 -61 -50 -82 -25 -24 -55 -38 -122 -61 -72 -24
-131 -51 -136 -61 -2 -5 -10 -8 -18 -8 -8 0 -14 -7 -14 -15 0 -12 -5 -13 -17
-7 -21 10 -234 -3 -278 -17 -16 -5 -47 -13 -68 -17 -20 -3 -40 -10 -43 -15 -3
-5 -22 -9 -43 -9 -22 0 -44 -6 -51 -15 -7 -8 -20 -15 -30 -15 -10 0 -31 -7
-46 -15 -16 -8 -37 -15 -46 -15 -9 0 -20 -4 -23 -10 -3 -5 -14 -10 -23 -10 -9
0 -30 -7 -46 -15 -15 -8 -41 -15 -57 -15 -15 0 -30 -4 -33 -9 -3 -5 -22 -12
-41 -15 -19 -4 -35 -11 -35 -16 0 -6 -11 -10 -24 -10 -13 0 -29 -7 -36 -15 -7
-8 -20 -15 -30 -15 -9 0 -38 -11 -64 -25 -26 -14 -54 -25 -62 -25 -8 0 -17 -7
-20 -15 -4 -8 -14 -15 -24 -15 -10 0 -23 -7 -30 -15 -7 -8 -21 -15 -30 -15
-10 0 -20 -3 -22 -7 -1 -5 -21 -17 -42 -28 -35 -18 -56 -20 -184 -17 -79 1
-151 6 -161 11 -9 5 -55 12 -104 16 -48 4 -90 11 -93 16 -3 5 -20 9 -38 9 -19
0 -39 7 -46 15 -7 8 -23 15 -36 15 -13 0 -24 5 -24 10 0 6 -6 10 -14 10 -8 0
-21 6 -28 13 -20 18 -77 47 -93 47 -7 0 -15 7 -19 15 -3 8 -15 15 -26 15 -11
0 -20 4 -20 9 0 5 -28 27 -62 50 -68 44 -108 75 -108 86 0 3 -22 27 -48 53
-64 62 -112 125 -112 148 -1 11 -7 30 -15 44 -19 33 -18 143 0 195 8 22 15 50
15 63 0 13 7 30 15 38 8 9 15 24 15 35 0 10 4 19 9 19 5 0 13 10 17 22 3 12
23 47 43 77 46 72 61 100 61 116 0 7 7 18 15 25 8 7 15 23 15 35 0 13 5 25 11
27 11 4 21 64 40 248 6 63 15 119 20 124 5 6 9 34 9 64 0 34 5 59 15 68 11 11
15 37 15 89 0 40 4 75 10 77 12 4 29 78 39 165 3 34 12 68 19 75 6 6 12 24 12
40 0 15 5 39 12 53 9 20 8 31 -2 50 -11 20 -10 29 4 58 9 19 16 46 16 60 0 14
5 29 10 32 6 3 10 15 10 26 0 11 7 22 15 25 8 4 15 17 15 30 0 14 7 27 15 30
8 4 15 12 15 20 0 8 11 32 25 54 14 22 25 46 25 55 0 8 4 15 9 15 5 0 14 12
20 28 5 15 20 45 32 67 40 74 49 93 49 108 0 9 3 17 8 19 21 9 72 102 72 132
0 18 7 39 15 46 8 7 15 19 15 26 0 8 24 38 54 68 53 53 54 54 87 43 19 -7 40
-16 47 -20 7 -5 56 -13 109 -18 90 -8 98 -7 115 11 19 21 24 35 8 25 -5 -3
-12 5 -15 18 -8 32 -43 47 -108 47 -29 0 -65 7 -81 15 -15 8 -38 12 -51 9 -13
-3 -25 -2 -28 4 -6 8 29 66 62 102 25 28 36 44 44 60 27 54 77 120 92 120 6 0
35 -25 65 -55z m-918 -1468 c-5 -7 -13 -47 -17 -89 -4 -43 -11 -80 -16 -84 -5
-3 -9 -20 -9 -37 0 -18 -7 -41 -15 -51 -10 -13 -15 -44 -15 -94 0 -40 -4 -82
-10 -92 -14 -26 -31 -157 -37 -279 -4 -99 -6 -107 -36 -145 -17 -23 -34 -43
-37 -46 -8 -8 -29 -43 -39 -67 -6 -11 -15 -24 -20 -28 -6 -3 -11 -15 -11 -26
0 -10 -4 -19 -10 -19 -5 0 -10 -9 -10 -19 0 -11 -7 -26 -15 -35 -8 -8 -15 -23
-15 -34 0 -11 -7 -25 -15 -32 -9 -7 -15 -29 -15 -51 0 -22 -3 -39 -8 -39 -27
0 -57 -199 -33 -215 5 -3 12 -19 16 -35 4 -17 11 -30 16 -30 5 0 9 -15 9 -34
0 -18 7 -39 15 -46 8 -7 15 -19 15 -26 0 -8 4 -14 9 -14 5 0 13 -10 17 -22 4
-13 17 -33 30 -45 13 -12 24 -27 24 -33 0 -5 3 -10 8 -10 8 0 122 -104 122
-111 0 -9 -125 3 -131 12 -3 5 -36 12 -73 16 -36 3 -69 10 -72 14 -3 5 -29 9
-57 9 -30 0 -60 7 -71 15 -12 9 -42 15 -72 15 -29 0 -54 5 -56 11 -2 6 -56 13
-136 16 -73 3 -135 10 -138 15 -3 4 -25 8 -49 8 -25 0 -50 6 -59 15 -8 9 -33
15 -58 15 -24 0 -49 5 -55 11 -6 6 -45 14 -85 17 -40 2 -77 8 -83 12 -5 5 -52
11 -103 15 -51 4 -95 12 -98 16 -3 5 -51 9 -108 9 -57 0 -107 5 -112 10 -6 6
-44 14 -85 17 -62 5 -77 9 -96 31 -27 29 -29 50 -8 78 20 27 19 68 -4 88 -11
10 -43 20 -77 23 -61 6 -114 39 -114 71 0 20 -42 62 -61 62 -9 0 -22 6 -28 14
-14 17 -106 15 -124 -3 -18 -18 -27 -12 -27 19 0 17 5 30 10 30 6 0 10 7 10
15 0 8 4 15 9 15 5 0 13 10 17 22 8 26 195 218 212 218 6 0 26 14 44 30 18 17
40 30 50 30 9 0 20 5 23 10 3 6 16 10 29 10 12 0 31 7 42 15 10 8 34 15 52 15
17 0 32 4 32 9 0 5 8 12 19 16 10 3 31 17 45 30 14 13 43 31 64 40 43 19 56
25 97 47 17 9 37 19 45 22 8 3 22 10 30 14 42 24 61 31 104 37 25 4 49 11 52
16 3 5 15 9 27 9 12 0 35 7 51 15 15 8 46 15 68 15 37 0 120 21 160 41 10 5
33 9 51 9 18 0 42 7 53 15 10 8 33 15 49 15 17 0 39 7 49 15 12 9 42 15 73 15
29 0 61 4 71 9 9 6 38 13 65 16 26 3 47 10 47 16 0 5 31 9 69 9 l69 0 7 -92
c4 -51 11 -99 16 -108 4 -8 10 -27 14 -42 5 -26 9 -28 50 -28 41 0 45 2 45 24
0 13 7 29 15 36 8 7 15 21 15 31 0 10 4 20 9 23 5 3 12 22 15 41 4 19 11 35
16 35 6 0 10 13 10 29 0 16 6 31 15 35 8 3 15 12 15 21 0 8 11 33 25 55 14 22
25 49 25 60 0 11 4 20 10 20 5 0 12 11 16 24 3 14 12 27 20 30 8 3 14 17 14
31 0 14 5 25 10 25 6 0 10 11 10 24 0 13 7 26 15 30 8 3 15 18 15 33 0 16 11
40 25 55 14 15 26 33 26 40 1 7 3 5 6 -5 3 -10 0 -23 -5 -30z m-3107 -2497 c3
-5 -1 -10 -10 -10 -9 0 -13 5 -10 10 3 6 8 10 10 10 2 0 7 -4 10 -10z m298 -7
c-24 -2 -62 -2 -85 0 -24 2 -5 4 42 4 47 0 66 -2 43 -4z m767 -44 c0 -11 -4
-18 -10 -14 -5 3 -7 12 -3 20 7 21 13 19 13 -6z"/>
<path d="M4531 7285 c0 -27 16 -104 18 -82 0 9 7 17 14 17 9 0 9 2 -1 9 -8 4
-13 10 -12 12 1 4 -1 11 -13 49 -4 10 -5 8 -6 -5z"/>
<path d="M4501 7114 c-19 -15 -31 -35 -31 -49 0 -13 -4 -27 -10 -30 -5 -3 -10
-10 -10 -16 0 -5 5 -9 10 -9 6 0 10 7 10 15 0 11 11 15 40 15 29 0 40 -4 40
-15 0 -8 7 -15 15 -15 11 0 15 11 15 40 0 30 4 40 16 40 14 0 14 3 4 15 -7 8
-21 15 -31 15 -11 0 -19 5 -19 10 0 17 -17 11 -49 -16z"/>
<path d="M4180 7054 c0 -8 5 -12 10 -9 6 3 10 10 10 16 0 5 -4 9 -10 9 -5 0
-10 -7 -10 -16z"/>
<path d="M4310 7026 c0 -9 5 -16 10 -16 6 0 10 4 10 9 0 6 -4 13 -10 16 -5 3
-10 -1 -10 -9z"/>
<path d="M4377 7034 c-13 -13 -7 -24 14 -24 11 0 19 5 17 12 -5 14 -22 21 -31
12z"/>
<path d="M4653 6970 c0 -25 2 -35 4 -22 2 12 2 32 0 45 -2 12 -4 2 -4 -23z"/>
<path d="M4070 6860 c0 -5 9 -10 20 -10 11 0 20 5 20 10 0 6 -9 10 -20 10 -11
0 -20 -4 -20 -10z"/>
<path d="M3972 6840 c0 -14 2 -19 5 -12 2 6 2 18 0 25 -3 6 -5 1 -5 -13z"/>
<path d="M4801 6834 c0 -11 3 -14 6 -6 3 7 2 16 -1 19 -3 4 -6 -2 -5 -13z"/>
<path d="M3975 6661 c-3 -5 -1 -12 5 -16 5 -3 10 1 10 9 0 18 -6 21 -15 7z"/>
<path d="M3990 6595 c0 -8 4 -15 9 -15 5 0 14 7 21 15 10 13 9 15 -9 15 -12 0
-21 -6 -21 -15z"/>
<path d="M4881 6494 c0 -11 3 -14 6 -6 3 7 2 16 -1 19 -3 4 -6 -2 -5 -13z"/>
<path d="M4062 6480 c-11 -17 -10 -23 3 -37 12 -12 19 -13 28 -4 6 6 20 11 32
11 18 1 18 3 -8 25 -34 30 -39 31 -55 5z"/>
<path d="M3990 6466 c0 -9 5 -16 10 -16 6 0 10 4 10 9 0 6 -4 13 -10 16 -5 3
-10 -1 -10 -9z"/>
<path d="M3902 6430 c0 -14 2 -19 5 -12 2 6 2 18 0 25 -3 6 -5 1 -5 -13z"/>
<path d="M3910 6380 c0 -5 5 -10 10 -10 6 0 10 5 10 10 0 6 -4 10 -10 10 -5 0
-10 -4 -10 -10z"/>
<path d="M3806 5994 c-18 -25 -18 -28 -2 -60 9 -19 16 -39 16 -44 0 -26 41
-50 85 -50 48 0 59 -16 29 -41 -14 -11 -16 -35 -13 -166 3 -104 8 -156 17
-165 6 -6 12 -34 12 -61 0 -26 6 -58 12 -70 7 -12 16 -56 19 -97 9 -92 23
-158 38 -173 6 -6 11 -21 11 -34 0 -12 6 -26 13 -30 7 -4 21 -25 32 -45 11
-21 23 -38 27 -38 5 0 8 -5 8 -10 0 -13 62 -69 76 -70 6 0 17 -7 24 -15 9 -10
32 -15 76 -15 42 0 67 5 78 15 8 8 24 15 36 15 11 0 23 7 26 15 4 8 15 15 26
15 32 0 100 89 113 148 3 18 11 32 16 32 5 0 9 15 9 34 0 19 5 36 11 38 15 5
32 76 31 128 -4 145 -18 290 -29 302 -8 7 -13 37 -13 71 0 39 -5 64 -15 73
-18 19 -20 64 -2 64 6 0 21 -7 31 -15 13 -10 43 -15 83 -15 62 0 63 1 64 28 1
15 1 33 0 40 -3 19 18 42 38 42 9 0 24 12 34 26 17 23 18 27 3 49 -9 14 -23
25 -30 25 -8 0 -16 5 -18 11 -4 11 -96 23 -300 38 -64 5 -122 12 -129 17 -7 4
-127 9 -268 11 l-256 3 -19 -26z"/>
<path d="M4778 6003 c6 -2 18 -2 25 0 6 3 1 5 -13 5 -14 0 -19 -2 -12 -5z"/>
<path d="M4856 5914 c-9 -24 -7 -66 3 -60 5 4 11 2 13 -3 1 -4 20 -11 41 -15
46 -8 49 7 9 44 -51 48 -59 52 -66 34z"/>
<path d="M4823 5813 c-7 -2 -13 -19 -13 -37 0 -18 -6 -38 -12 -46 -11 -12 -10
-12 5 -1 9 7 17 25 17 40 0 15 5 32 12 39 13 13 11 14 -9 5z"/>
<path d="M4940 5801 c0 -6 4 -13 10 -16 6 -3 7 1 4 9 -7 18 -14 21 -14 7z"/>
<path d="M3740 5737 c0 -7 -3 -29 -6 -49 -6 -34 -4 -38 15 -38 18 0 21 6 21
44 0 30 -5 46 -15 50 -8 3 -15 0 -15 -7z"/>
<path d="M4897 5672 c-10 -11 -17 -36 -17 -60 0 -35 -3 -42 -20 -42 -18 0 -20
-7 -20 -80 0 -64 3 -80 15 -80 8 0 15 -7 15 -15 0 -11 11 -15 40 -15 29 0 40
4 40 15 0 8 5 15 10 15 15 0 12 49 -4 66 -8 8 -24 14 -35 14 -18 0 -21 6 -21
40 0 33 4 40 19 40 15 0 20 9 23 48 7 73 -10 93 -45 54z"/>
<path d="M4738 5643 c7 -3 16 -2 19 1 4 3 -2 6 -13 5 -11 0 -14 -3 -6 -6z"/>
<path d="M5065 5460 c3 -5 8 -10 11 -10 2 0 4 5 4 10 0 6 -5 10 -11 10 -5 0
-7 -4 -4 -10z"/>
<path d="M3706 5353 c-11 -11 -6 -23 9 -23 8 0 15 4 15 9 0 13 -16 22 -24 14z"/>
<path d="M3750 5340 c0 -5 7 -10 16 -10 8 0 12 5 9 10 -3 6 -10 10 -16 10 -5
0 -9 -4 -9 -10z"/>
<path d="M5210 5274 c0 -27 5 -35 23 -38 52 -12 72 -11 75 4 2 13 -6 15 -39
12 -30 -3 -40 -1 -34 8 4 6 12 9 19 7 6 -3 17 1 23 9 16 16 1 28 -39 30 -25 2
-28 -2 -28 -32z"/>
<path d="M5190 5184 c0 -9 10 -14 30 -14 17 0 30 2 30 4 0 2 -13 9 -30 15 -24
8 -30 7 -30 -5z"/>
<path d="M4675 5160 c-3 -5 -1 -10 4 -10 6 0 11 5 11 10 0 6 -2 10 -4 10 -3 0
-8 -4 -11 -10z"/>
<path d="M3832 5090 c0 -19 2 -27 5 -17 2 9 2 25 0 35 -3 9 -5 1 -5 -18z"/>
<path d="M4732 5070 c0 -14 2 -19 5 -12 2 6 2 18 0 25 -3 6 -5 1 -5 -13z"/>
<path d="M5270 5075 c0 -11 11 -15 40 -15 29 0 40 4 40 15 0 11 -11 15 -40 15
-29 0 -40 -4 -40 -15z"/>
<path d="M5360 5070 c0 -11 2 -20 4 -20 2 0 6 9 9 20 3 11 1 20 -4 20 -5 0 -9
-9 -9 -20z"/>
<path d="M3898 4963 c7 -3 16 -2 19 1 4 3 -2 6 -13 5 -11 0 -14 -3 -6 -6z"/>
<path d="M3535 4940 c-3 -5 -1 -10 4 -10 6 0 11 5 11 10 0 6 -2 10 -4 10 -3 0
-8 -4 -11 -10z"/>
<path d="M5250 4880 l-20 -20 25 -26 c17 -17 32 -23 45 -19 20 6 28 35 10 35
-5 0 -10 6 -10 14 0 7 -6 19 -14 25 -12 10 -19 8 -36 -9z"/>
<path d="M3913 4815 c0 -27 2 -38 4 -22 2 15 2 37 0 50 -2 12 -4 0 -4 -28z"/>
<path d="M3506 4674 c-3 -9 -6 -27 -6 -40 0 -15 -6 -24 -15 -24 -8 0 -15 -4
-15 -8 0 -12 32 -40 45 -41 6 0 11 -10 13 -21 2 -12 11 -24 20 -27 9 -4 22
-14 29 -24 7 -9 28 -24 48 -33 19 -9 34 -22 32 -28 -1 -6 19 -16 46 -23 40
-11 47 -11 47 2 0 19 -25 43 -44 43 -9 0 -16 7 -16 15 0 21 -40 65 -59 65 -15
0 -41 41 -41 65 0 7 -18 20 -40 30 -41 19 -49 32 -28 53 8 8 8 12 1 12 -6 0
-14 -7 -17 -16z"/>
<path d="M5453 4683 c-7 -2 -13 -20 -13 -39 0 -27 4 -34 20 -34 17 0 20 7 20
40 0 40 -3 43 -27 33z"/>
<path d="M5350 4618 c0 -25 37 -48 76 -48 27 0 40 16 19 24 -8 3 -15 15 -15
26 0 17 -6 20 -40 20 -35 0 -40 -3 -40 -22z"/>
<path d="M3805 4620 c-3 -5 1 -10 9 -10 9 0 16 5 16 10 0 6 -4 10 -9 10 -6 0
-13 -4 -16 -10z"/>
<path d="M5965 4600 c-3 -5 -1 -10 4 -10 6 0 11 5 11 10 0 6 -2 10 -4 10 -3 0
-8 -4 -11 -10z"/>
<path d="M5350 4546 c0 -9 7 -16 16 -16 9 0 14 5 12 12 -6 18 -28 21 -28 4z"/>
<path d="M5111 4514 c0 -11 3 -14 6 -6 3 7 2 16 -1 19 -3 4 -6 -2 -5 -13z"/>
<path d="M5190 4526 c0 -9 30 -14 35 -6 4 6 -3 10 -14 10 -12 0 -21 -2 -21 -4z"/>
<path d="M5000 4465 c-14 -17 -50 -20 -50 -5 0 6 -18 10 -40 10 -22 0 -40 -4
-40 -10 0 -5 8 -10 17 -10 9 0 24 -7 34 -16 16 -14 21 -14 54 2 28 13 41 14
60 6 15 -7 26 -8 30 -2 4 6 15 10 26 10 10 0 19 7 19 15 0 11 -12 15 -49 15
-31 0 -53 -5 -61 -15z"/>
<path d="M3766 4405 c-10 -26 -7 -35 9 -35 17 0 19 18 6 38 -7 11 -10 10 -15
-3z"/>
<path d="M4745 4360 c3 -5 15 -10 26 -10 10 0 19 5 19 10 0 6 -12 10 -26 10
-14 0 -23 -4 -19 -10z"/>
<path d="M4470 4279 c0 -5 5 -7 10 -4 6 3 10 8 10 11 0 2 -4 4 -10 4 -5 0 -10
-5 -10 -11z"/>
<path d="M4377 4241 l-27 -28 37 1 c47 2 63 11 63 37 0 29 -40 24 -73 -10z"/>
<path d="M3910 4244 c0 -12 6 -15 23 -10 12 3 29 6 37 7 8 0 4 5 -10 9 -39 13
-50 11 -50 -6z"/>
<path d="M2535 5480 c-3 -5 -1 -10 4 -10 6 0 11 -13 11 -30 l0 -30 80 0 c73 0
80 2 80 20 0 17 7 20 40 20 33 0 40 3 40 20 0 19 -7 20 -124 20 -73 0 -127 -4
-131 -10z"/>
<path d="M2970 5453 c1 -49 37 -81 71 -62 16 8 18 13 9 19 -7 5 -19 6 -27 3
-9 -4 -13 6 -13 36 0 34 -3 41 -20 41 -17 0 -20 -7 -20 -37z"/>
<path d="M3270 5391 c0 -11 -4 -23 -10 -26 -16 -10 -12 -35 6 -35 8 0 12 5 9
10 -3 6 0 10 8 10 18 0 29 24 21 45 -9 22 -34 18 -34 -4z"/>
<path d="M2150 5369 c0 -3 -16 -10 -35 -16 -19 -6 -35 -7 -35 -3 0 11 -61 3
-74 -10 -7 -7 -5 -10 7 -10 9 0 17 -4 17 -10 0 -5 9 -10 20 -10 15 0 20 -7 20
-25 0 -14 4 -25 9 -25 12 0 52 55 46 62 -3 3 2 5 10 6 8 1 22 3 30 4 8 1 13 4
10 7 -3 3 8 12 25 21 l30 15 -40 0 c-22 0 -40 -2 -40 -6z"/>
<path d="M3150 5365 c-9 -11 -17 -12 -30 -5 -10 6 -35 10 -54 10 -38 0 -46
-15 -23 -39 10 -11 10 -13 0 -7 -9 5 -13 0 -13 -14 0 -17 4 -20 18 -15 34 15
62 17 62 6 0 -7 9 -21 20 -33 l19 -21 7 41 c4 23 10 42 15 42 5 0 9 11 9 25 0
28 -12 32 -30 10z"/>
<path d="M2328 5323 c12 -2 32 -2 45 0 12 2 2 4 -23 4 -25 0 -35 -2 -22 -4z"/>
<path d="M3190 5283 c0 -26 21 -30 40 -8 15 18 5 34 -20 32 -14 -1 -20 -9 -20
-24z"/>
<path d="M1935 5290 c3 -5 8 -10 11 -10 2 0 4 5 4 10 0 6 -5 10 -11 10 -5 0
-7 -4 -4 -10z"/>
<path d="M1990 5286 c0 -7 -15 -21 -34 -30 -38 -18 -50 -20 -42 -8 3 5 -8 6
-25 4 -20 -3 -29 -10 -29 -23 0 -11 7 -19 15 -19 8 0 15 5 15 10 0 6 5 10 10
10 6 0 10 -7 10 -15 0 -8 9 -15 20 -15 11 0 20 5 20 10 0 6 9 10 20 10 11 0
20 -7 20 -15 0 -20 6 -19 42 6 23 17 32 19 38 9 9 -15 30 -5 30 16 0 9 -11 14
-35 14 -31 0 -35 3 -35 25 0 18 -5 25 -20 25 -11 0 -20 -6 -20 -14z"/>
<path d="M3063 5257 l-33 -11 0 -78 0 -78 50 0 c28 0 50 -4 50 -10 0 -5 5 -10
11 -10 14 0 1 42 -17 56 -16 13 -19 84 -4 84 15 0 12 29 -4 46 -8 8 -16 13
-18 13 -2 -1 -18 -7 -35 -12z"/>
<path d="M3200 5241 c0 -5 9 -7 20 -4 11 3 20 7 20 9 0 2 -9 4 -20 4 -11 0
-20 -4 -20 -9z"/>
<path d="M3130 5190 c0 -15 7 -20 29 -20 16 0 32 -6 35 -12 3 -7 3 -2 0 12 -9
33 -11 35 -29 20 -12 -10 -15 -10 -15 4 0 9 -4 16 -10 16 -5 0 -10 -9 -10 -20z"/>
<path d="M1685 5190 c-3 -5 1 -10 9 -10 9 0 16 5 16 10 0 6 -4 10 -9 10 -6 0
-13 -4 -16 -10z"/>
<path d="M1860 5180 c0 -5 11 -10 25 -10 14 0 25 5 25 10 0 6 -11 10 -25 10
-14 0 -25 -4 -25 -10z"/>
<path d="M1670 5111 c0 -5 -19 -12 -42 -14 -34 -3 -29 -4 20 -5 47 -2 63 1 60
11 -6 15 -38 22 -38 8z"/>
<path d="M3110 5020 c0 -11 4 -20 9 -20 5 0 7 9 4 20 -3 11 -7 20 -9 20 -2 0
-4 -9 -4 -20z"/>
<path d="M3050 4995 c0 -8 2 -15 4 -15 2 0 6 7 10 15 3 8 1 15 -4 15 -6 0 -10
-7 -10 -15z"/>
<path d="M3077 4991 c-4 -17 -3 -21 5 -13 5 5 8 16 6 23 -3 8 -7 3 -11 -10z"/>
<path d="M1505 4970 c4 -6 11 -8 16 -5 5 4 10 -1 10 -9 1 -9 2 -21 3 -28 0 -6
9 -12 19 -14 9 -1 29 -16 44 -33 15 -17 33 -31 40 -31 18 0 16 29 -2 36 -8 4
-15 14 -15 25 0 13 -10 20 -36 25 -24 4 -38 13 -41 25 -3 11 -14 19 -25 19
-10 0 -16 -5 -13 -10z"/>
<path d="M1410 4910 c0 -5 5 -10 11 -10 5 0 7 5 4 10 -3 6 -8 10 -11 10 -2 0
-4 -4 -4 -10z"/>
<path d="M1450 4891 c0 -5 5 -13 10 -16 6 -3 10 -2 10 4 0 5 -4 13 -10 16 -5
3 -10 2 -10 -4z"/>
<path d="M3030 4818 c0 -19 2 -20 10 -8 13 19 13 30 0 30 -5 0 -10 -10 -10
-22z"/>
<path d="M1725 4760 c3 -5 10 -10 16 -10 5 0 9 5 9 10 0 6 -7 10 -16 10 -8 0
-12 -4 -9 -10z"/>
<path d="M3030 4754 c0 -14 3 -14 15 -4 8 7 15 14 15 16 0 2 -7 4 -15 4 -8 0
-15 -7 -15 -16z"/>
<path d="M1815 4696 c-9 -20 10 -38 34 -33 23 3 25 27 3 27 -11 0 -22 6 -25
13 -3 8 -7 6 -12 -7z"/>
<path d="M2550 4650 l0 -40 80 0 c44 0 80 3 80 8 0 4 -18 18 -40 32 -22 14
-40 28 -40 32 0 5 -18 8 -40 8 l-40 0 0 -40z"/>
<path d="M2150 4640 c0 -5 7 -10 16 -10 8 0 12 5 9 10 -3 6 -10 10 -16 10 -5
0 -9 -4 -9 -10z"/>
<path d="M3030 4631 c0 -12 5 -21 10 -21 6 0 10 6 10 14 0 8 -4 18 -10 21 -5
3 -10 -3 -10 -14z"/>
<path d="M1910 4625 c0 -11 11 -15 39 -15 22 0 41 -5 43 -12 3 -9 6 -9 12 0 4
7 2 12 -3 12 -6 0 -11 7 -11 15 0 11 -11 15 -40 15 -29 0 -40 -4 -40 -15z"/>
<path d="M2390 4589 c0 -24 23 -21 28 4 2 10 -3 17 -12 17 -10 0 -16 -9 -16
-21z"/>
<path d="M2070 4580 c0 -13 11 -13 30 0 12 8 11 10 -7 10 -13 0 -23 -4 -23
-10z"/>
<path d="M2470 4540 c0 -10 20 -14 54 -10 10 1 22 -3 26 -10 9 -15 80 -31 80
-18 0 5 8 7 18 4 10 -4 27 1 38 9 17 13 12 14 -58 15 -45 0 -78 4 -78 10 0 6
-18 10 -40 10 -22 0 -40 -4 -40 -10z"/>
<path d="M3110 4451 c0 -12 6 -21 15 -21 8 0 15 3 15 6 0 3 -7 12 -15 20 -13
14 -15 13 -15 -5z"/>
<path d="M2955 4380 c-4 -6 5 -10 19 -10 14 0 26 5 26 10 0 6 -9 10 -19 10
-11 0 -23 -4 -26 -10z"/>
<path d="M7350 10289 c0 -7 15 -9 40 -6 58 6 62 17 7 17 -27 0 -47 -5 -47 -11z"/>
<path d="M7510 10256 c0 -13 12 -16 78 -16 90 1 80 16 -17 26 -53 6 -61 5 -61
-10z"/>
<path d="M7670 10225 c0 -12 -15 -15 -79 -15 l-79 0 -4 -40 c-2 -22 0 -40 4
-40 5 0 8 5 8 10 0 6 38 10 95 10 l95 0 0 39 c0 26 -5 41 -16 45 -22 9 -24 8
-24 -9z"/>
<path d="M5918 10213 c7 -3 16 -2 19 1 4 3 -2 6 -13 5 -11 0 -14 -3 -6 -6z"/>
<path d="M5810 10190 c0 -11 5 -20 10 -20 6 0 10 9 10 20 0 11 -4 20 -10 20
-5 0 -10 -9 -10 -20z"/>
<path d="M6808 10203 c12 -2 32 -2 45 0 12 2 2 4 -23 4 -25 0 -35 -2 -22 -4z"/>
<path d="M7750 10184 c0 -9 10 -14 30 -14 17 0 30 2 30 4 0 2 -13 9 -30 15
-24 8 -30 7 -30 -5z"/>
<path d="M5830 10090 l0 -40 40 0 40 0 0 40 0 40 -40 0 -40 0 0 -40z"/>
<path d="M7590 10109 c0 -11 5 -17 10 -14 6 3 10 13 10 21 0 8 -4 14 -10 14
-5 0 -10 -9 -10 -21z"/>
<path d="M7650 10116 c0 -8 5 -18 10 -21 6 -3 10 -15 10 -26 0 -12 7 -19 19
-19 10 0 46 -3 80 -6 l61 -7 0 41 c0 41 0 41 43 45 23 2 -18 4 -90 5 -110 2
-133 -1 -133 -12z"/>
<path d="M5590 10070 c0 -11 -7 -20 -15 -20 -20 0 -19 -25 2 -61 15 -25 23
-29 58 -28 23 1 30 4 18 6 -28 5 -29 24 -3 48 11 10 20 31 20 47 0 26 -3 28
-40 28 -33 0 -40 -3 -40 -20z"/>
<path d="M7990 10055 c0 -10 10 -15 33 -15 l32 1 -25 14 c-32 18 -40 18 -40 0z"/>
<path d="M5494 10023 c-9 -15 -15 -16 -38 -5 -24 11 -31 10 -52 -7 l-25 -20
20 -20 c12 -12 29 -21 40 -21 10 0 24 -7 31 -15 14 -17 14 -17 -15 -33 -19
-11 -18 -11 8 -12 17 0 27 5 27 15 0 8 5 15 10 15 6 0 10 -25 10 -55 0 -54 0
-55 30 -55 23 0 30 -4 30 -20 0 -11 5 -20 10 -20 6 0 10 -9 10 -20 0 -11 -4
-20 -10 -20 -5 0 -10 9 -10 20 0 18 -7 20 -69 20 -85 0 -98 -10 -93 -73 3 -38
8 -47 23 -47 13 0 19 -7 19 -22 0 -21 1 -21 14 -3 7 10 11 26 9 36 -6 22 12
33 29 17 16 -16 118 -14 148 2 16 9 20 8 20 -5 0 -12 6 -15 20 -11 11 3 29 9
40 12 11 3 20 1 20 -4 0 -11 47 -27 69 -23 7 1 20 -7 28 -19 11 -16 18 -18 28
-10 10 8 19 3 39 -20 14 -18 26 -35 26 -40 0 -4 13 -13 29 -18 16 -6 42 -26
57 -46 21 -26 40 -38 66 -42 20 -4 39 -13 42 -21 3 -8 1 -11 -4 -8 -17 10 -11
-3 12 -30 11 -13 25 -22 29 -20 11 7 23 -34 20 -73 -1 -28 2 -34 29 -43 22 -8
28 -14 21 -23 -10 -12 11 -67 39 -101 7 -8 10 -22 6 -30 -3 -9 0 -15 8 -15 8
0 16 -8 20 -17 3 -10 9 -24 12 -32 4 -9 2 -11 -5 -7 -16 10 -13 -25 4 -48 13
-17 13 -22 -2 -38 -15 -17 -15 -18 0 -18 14 0 17 -10 17 -51 0 -28 -6 -63 -14
-77 -8 -15 -20 -46 -27 -69 -7 -24 -16 -43 -21 -43 -4 0 -8 -9 -8 -20 0 -11 5
-20 11 -20 5 0 8 -4 4 -9 -3 -5 2 -16 10 -24 8 -9 15 -18 15 -22 0 -4 6 -13
14 -20 12 -12 16 -12 26 0 7 8 19 15 26 15 8 0 14 5 14 10 0 6 -13 10 -30 10
-30 0 -37 11 -24 44 5 13 9 12 27 -5 l22 -20 3 70 c3 63 5 71 22 71 17 0 20 7
20 40 0 22 -4 40 -10 40 -6 0 -10 31 -10 74 0 66 -2 75 -20 81 -22 7 -26 20
-9 30 7 5 6 12 -4 23 -8 10 -21 44 -28 77 -14 69 -28 93 -40 73 -6 -10 -9 -9
-13 2 -25 83 -42 120 -52 120 -8 0 -14 17 -16 43 -3 37 -7 44 -40 60 -24 12
-38 26 -38 38 0 11 -7 19 -18 19 -9 0 -22 10 -27 23 -6 12 -20 23 -32 25 -12
2 -27 10 -33 18 -10 11 -8 14 11 14 22 1 22 2 6 11 -10 6 -27 9 -37 6 -11 -3
-21 0 -24 7 -2 6 -5 3 -5 -6 -1 -24 -4 -23 -45 18 -22 22 -36 46 -36 61 0 26
-1 26 -60 20 -33 -4 -60 -3 -60 2 0 5 -21 11 -47 15 -70 9 -78 17 -50 48 26
28 43 104 29 126 -7 10 -15 9 -39 -3 -17 -9 -34 -22 -37 -30 -8 -23 -23 -18
-43 15 -9 17 -25 30 -35 30 -14 0 -18 8 -18 40 0 22 -4 40 -10 40 -5 0 -10 7
-10 15 0 8 -4 15 -9 15 -5 0 -11 9 -13 20 -3 19 -4 19 -14 3z m-44 -297 c0 -3
-4 -8 -10 -11 -5 -3 -10 -1 -10 4 0 6 5 11 10 11 6 0 10 -2 10 -4z"/>
<path d="M5166 10012 c-4 -4 -13 -7 -19 -7 -7 -1 -11 -6 -9 -13 1 -7 -5 -15
-13 -18 -8 -4 -15 -17 -15 -30 0 -21 -5 -24 -39 -24 -22 0 -44 -6 -51 -15 -9
-10 -9 -15 -1 -15 6 0 11 -7 11 -15 0 -11 12 -15 49 -15 28 0 53 5 57 12 4 6
8 32 8 57 1 38 5 48 24 56 12 5 22 13 22 17 0 11 -17 18 -24 10z"/>
<path d="M5265 10010 c-4 -6 10 -10 34 -10 21 0 48 -3 58 -7 16 -6 16 -5 4 10
-15 19 -86 24 -96 7z"/>
<path d="M8008 9973 c12 -2 32 -2 45 0 12 2 2 4 -23 4 -25 0 -35 -2 -22 -4z"/>
<path d="M5258 9963 c6 -2 18 -2 25 0 6 3 1 5 -13 5 -14 0 -19 -2 -12 -5z"/>
<path d="M5362 9950 c-16 -26 -15 -60 2 -60 14 0 26 29 26 63 0 23 -12 22 -28
-3z"/>
<path d="M5790 9930 c0 -33 3 -40 20 -40 18 0 20 -7 20 -60 l0 -60 40 0 c33 0
40 -3 40 -20 0 -18 7 -20 60 -20 l60 0 0 40 c0 33 -3 40 -20 40 -13 0 -20 -7
-20 -20 0 -17 -7 -20 -40 -20 -33 0 -40 3 -40 20 0 13 -7 20 -20 20 -18 0 -20
7 -20 80 l0 80 -40 0 -40 0 0 -40z"/>
<path d="M4934 9892 c-6 -4 -13 -15 -17 -24 -5 -13 -1 -18 13 -18 15 0 20 7
20 25 0 28 0 28 -16 17z"/>
<path d="M4700 9880 c0 -5 7 -7 15 -4 8 4 15 8 15 10 0 2 -7 4 -15 4 -8 0 -15
-4 -15 -10z"/>
<path d="M4790 9814 c0 -11 -6 -26 -12 -33 -11 -11 -10 -12 1 -6 9 5 12 3 9
-6 -3 -10 -22 -14 -59 -14 -81 0 -111 -30 -100 -97 2 -12 -9 -9 -24 6 -8 7
-12 16 -9 18 2 3 -15 8 -38 11 -47 6 -57 2 -40 -15 15 -15 16 -108 2 -108 -5
0 -10 4 -10 9 0 21 -33 42 -56 37 -14 -4 -24 -2 -24 4 0 19 -39 10 -45 -10 -9
-29 3 -43 33 -37 41 8 52 -2 52 -44 0 -39 0 -39 40 -39 33 0 40 3 40 20 0 16
7 20 35 20 22 0 44 8 57 20 19 18 20 20 4 20 -13 0 -17 7 -14 27 2 21 10 29
37 36 25 6 36 5 42 -4 6 -10 12 -9 27 4 10 9 26 17 35 17 12 0 17 9 17 30 l0
30 60 0 c33 0 60 4 60 10 0 6 23 7 60 3 60 -6 60 -6 60 21 0 24 3 26 40 26 33
0 40 -3 40 -20 0 -18 7 -20 58 -20 52 0 60 3 71 24 17 31 6 49 -25 42 -14 -4
-24 -2 -24 4 0 7 -41 11 -122 10 -84 -1 -122 2 -120 9 1 7 -14 11 -38 11 -22
0 -40 -4 -40 -10 0 -14 -54 -12 -68 2 -9 9 -12 8 -12 -8z m-220 -154 c0 -5 -2
-10 -4 -10 -3 0 -8 5 -11 10 -3 6 -1 10 4 10 6 0 11 -4 11 -10z"/>
<path d="M5310 9761 c0 -27 -4 -61 -10 -76 -8 -20 -5 -35 11 -67 17 -32 18
-42 8 -49 -10 -6 -7 -11 11 -18 19 -7 28 -6 36 5 16 20 23 17 21 -6 -1 -13
-13 -24 -33 -32 -18 -6 -35 -20 -37 -30 -6 -21 18 -25 26 -4 3 7 18 16 34 19
23 4 32 14 40 42 9 27 8 35 0 34 -47 -6 -44 -14 -48 154 l-1 77 -29 0 c-28 0
-29 -2 -29 -49z"/>
<path d="M4700 9780 c-12 -8 -10 -10 8 -10 13 0 20 4 17 10 -7 12 -6 12 -25 0z"/>
<path d="M5747 9754 c-14 -14 -6 -24 19 -24 16 0 24 5 22 13 -5 14 -31 21 -41
11z"/>
<path d="M4438 9723 c7 -3 16 -2 19 1 4 3 -2 6 -13 5 -11 0 -14 -3 -6 -6z"/>
<path d="M5190 9665 c0 -11 -11 -15 -40 -15 l-40 0 0 -79 0 -80 -37 -4 c-21
-2 -11 -2 22 1 96 8 126 6 136 -9 6 -10 9 -10 9 -1 0 6 6 12 13 12 15 0 40 74
26 78 -5 2 -9 12 -9 23 0 13 -7 19 -21 19 -17 0 -20 5 -16 25 3 18 -1 29 -14
35 -24 13 -29 13 -29 -5z m40 -75 c0 -13 -7 -20 -20 -20 -13 0 -20 7 -20 20 0
13 7 20 20 20 13 0 20 -7 20 -20z"/>
<path d="M5975 9640 c4 -6 11 -8 16 -5 14 9 11 15 -7 15 -8 0 -12 -5 -9 -10z"/>
<path d="M4403 9553 c-7 -2 -13 -13 -13 -24 0 -23 -13 -24 -34 -4 -16 17 -46
10 -46 -10 0 -8 8 -11 20 -8 11 3 20 0 20 -6 0 -6 -11 -11 -24 -11 -13 0 -31
-3 -40 -6 -21 -8 -21 -54 -1 -54 21 0 68 25 84 44 8 9 29 16 47 16 36 0 43 14
24 51 -11 19 -16 21 -37 12z"/>
<path d="M5502 9518 c-7 -7 -12 -22 -12 -35 0 -13 -4 -23 -9 -23 -6 0 -3 -12
4 -27 13 -25 21 -29 77 -33 l63 -5 2 -54 c2 -35 -3 -63 -12 -78 -8 -12 -15
-29 -15 -38 0 -8 -6 -15 -14 -15 -7 0 -19 -7 -26 -15 -21 -25 -55 -17 -94 21
-42 41 -57 71 -46 94 27 53 31 71 28 106 -3 38 -4 39 -41 37 -27 -2 -47 -12
-72 -36 -19 -19 -35 -39 -35 -46 0 -6 -4 -11 -10 -11 -5 0 -13 -12 -16 -27 -4
-15 -13 -38 -20 -52 -18 -34 -18 -75 0 -114 8 -18 16 -54 19 -82 3 -27 10 -51
16 -53 6 -2 11 -13 11 -25 0 -12 7 -31 15 -41 8 -11 15 -30 15 -42 0 -13 5
-26 10 -29 6 -3 10 -13 10 -22 0 -15 19 -65 46 -116 8 -16 14 -35 14 -43 0 -8
4 -14 10 -14 5 0 12 -11 16 -25 3 -14 10 -25 15 -25 5 0 9 -6 9 -14 0 -21 124
-126 150 -126 9 0 21 -5 28 -12 16 -16 268 -16 284 0 7 7 22 12 34 12 12 0 27
7 34 15 7 8 20 15 29 15 22 0 161 147 161 171 0 10 7 19 15 19 13 0 15 23 15
149 0 120 -3 151 -15 161 -8 7 -15 20 -15 28 0 25 -32 102 -41 102 -5 0 -9 7
-9 15 0 9 -7 18 -15 21 -8 4 -15 14 -15 23 0 9 -11 28 -25 43 -14 15 -25 31
-25 36 0 5 -15 21 -33 35 -19 14 -53 44 -77 66 -24 23 -49 41 -55 41 -5 0 -22
11 -36 24 -14 13 -35 27 -47 30 -12 4 -22 12 -22 17 0 14 -263 12 -278 -3z"/>
<path d="M6188 9483 c7 -3 16 -2 19 1 4 3 -2 6 -13 5 -11 0 -14 -3 -6 -6z"/>
<path d="M4211 9413 c-7 -12 -5 -21 7 -30 15 -11 12 -12 -14 -7 -29 6 -33 3
-43 -29 -7 -20 -20 -37 -31 -40 -14 -3 -20 -14 -20 -31 0 -23 -2 -25 -20 -14
-23 15 -31 9 -24 -18 4 -17 12 -20 45 -17 33 3 39 0 39 -17 0 -17 -6 -20 -40
-17 -28 2 -40 -1 -40 -10 0 -9 14 -13 40 -13 l40 0 0 -80 0 -80 -40 0 c-33 0
-40 -3 -40 -20 0 -18 7 -20 80 -20 73 0 80 2 80 20 0 13 7 20 20 20 18 0 20 7
20 80 0 69 -3 82 -20 92 -25 16 -26 37 -2 54 16 13 16 13 0 14 -14 0 -18 9
-18 40 0 33 3 40 20 40 16 0 20 7 20 36 0 53 -38 84 -59 47z m39 -13 c0 -5 -4
-10 -10 -10 -5 0 -10 5 -10 10 0 6 5 10 10 10 6 0 10 -4 10 -10z"/>
<path d="M4085 9340 c-3 -5 1 -10 10 -10 9 0 13 5 10 10 -3 6 -8 10 -10 10 -2
0 -7 -4 -10 -10z"/>
<path d="M6390 9200 c0 -27 3 -50 6 -50 16 0 34 33 34 64 0 29 -4 36 -20 36
-17 0 -20 -7 -20 -50z"/>
<path d="M4020 9186 c0 -9 7 -16 16 -16 17 0 14 22 -4 28 -7 2 -12 -3 -12 -12z"/>
<path d="M6410 9130 c0 -5 7 -10 15 -10 8 0 15 5 15 10 0 6 -7 10 -15 10 -8 0
-15 -4 -15 -10z"/>
<path d="M6390 9100 c0 -5 5 -10 10 -10 6 0 10 -18 10 -40 0 -33 3 -40 20 -40
17 0 20 7 20 40 0 33 -3 40 -20 40 -11 0 -20 5 -20 10 0 6 -4 10 -10 10 -5 0
-10 -4 -10 -10z"/>
<path d="M6470 9050 c0 -22 5 -40 10 -40 6 0 10 18 10 40 0 22 -4 40 -10 40
-5 0 -10 -18 -10 -40z"/>
<path d="M3880 8993 c0 -7 6 -12 13 -10 6 1 11 -4 9 -11 -1 -8 2 -11 8 -7 6 4
9 14 5 22 -4 13 -3 14 10 3 12 -10 15 -10 15 3 0 12 -8 16 -30 14 -16 -1 -30
-8 -30 -14z"/>
<path d="M3976 8942 c-4 -7 -16 -12 -27 -12 -14 0 -19 -7 -19 -27 l1 -28 22
26 c19 22 28 25 70 21 44 -4 47 -6 47 -32 0 -27 -3 -29 -47 -33 l-48 -3 48 -2
47 -2 0 -85 0 -85 40 0 40 0 0 45 0 45 40 0 40 0 0 40 0 40 -40 0 -40 0 0 40
0 40 -79 0 c-53 0 -81 4 -83 12 -3 9 -6 9 -12 0z"/>
<path d="M5280 8841 c0 -11 5 -23 10 -26 6 -3 10 3 10 14 0 11 -4 23 -10 26
-5 3 -10 -3 -10 -14z"/>
<path d="M5282 8778 c2 -6 10 -14 16 -16 7 -2 10 2 6 12 -7 18 -28 22 -22 4z"/>
<path d="M5261 8754 c0 -11 3 -14 6 -6 3 7 2 16 -1 19 -3 4 -6 -2 -5 -13z"/>
<path d="M5197 8726 c-11 -27 -8 -36 8 -36 16 0 17 5 6 34 -7 18 -8 18 -14 2z"/>
<path d="M5390 8640 c0 -5 5 -10 11 -10 5 0 7 5 4 10 -3 6 -8 10 -11 10 -2 0
-4 -4 -4 -10z"/>
<path d="M5247 8590 c3 -11 9 -17 14 -14 14 8 10 34 -5 34 -9 0 -12 -7 -9 -20z"/>
<path d="M4205 8521 c-3 -5 -1 -12 5 -16 5 -3 10 1 10 9 0 18 -6 21 -15 7z"/>
<path d="M5368 8523 c7 -3 16 -2 19 1 4 3 -2 6 -13 5 -11 0 -14 -3 -6 -6z"/>
<path d="M6310 8470 l0 -60 40 0 c37 0 40 2 40 26 0 15 8 33 18 40 16 12 16
14 -5 33 -14 13 -36 21 -58 21 l-35 0 0 -60z"/>
<path d="M3595 8470 c-3 -5 -1 -10 4 -10 6 0 11 5 11 10 0 6 -2 10 -4 10 -3 0
-8 -4 -11 -10z"/>
<path d="M3628 8453 c7 -3 16 -2 19 1 4 3 -2 6 -13 5 -11 0 -14 -3 -6 -6z"/>
<path d="M5368 8453 c7 -3 16 -2 19 1 4 3 -2 6 -13 5 -11 0 -14 -3 -6 -6z"/>
<path d="M5456 8451 c-3 -5 1 -11 9 -15 15 -6 29 7 18 18 -9 9 -21 8 -27 -3z"/>
<path d="M4210 8430 c0 -14 5 -32 10 -40 8 -12 10 -11 10 6 0 13 8 24 20 27
11 3 20 10 20 16 0 6 -9 11 -20 11 -11 0 -20 -6 -20 -12 0 -9 -4 -8 -10 2 -8
12 -10 10 -10 -10z"/>
<path d="M3490 8359 c0 -5 5 -7 10 -4 6 3 10 8 10 11 0 2 -4 4 -10 4 -5 0 -10
-5 -10 -11z"/>
<path d="M6310 8330 c0 -33 3 -40 20 -40 17 0 20 7 20 40 0 33 -3 40 -20 40
-17 0 -20 -7 -20 -40z"/>
<path d="M5555 8350 c-4 -6 7 -10 27 -10 25 0 29 3 18 10 -19 13 -37 13 -45 0z"/>
<path d="M5288 8322 c-12 -2 -18 -13 -18 -33 0 -34 7 -35 38 -9 20 16 22 22
10 33 -7 7 -21 11 -30 9z"/>
<path d="M5586 8306 c-15 -9 -39 -16 -51 -16 -13 0 -30 -7 -39 -15 -8 -8 -21
-15 -28 -15 -12 0 -29 -13 -99 -76 -39 -34 -99 -108 -99 -121 0 -7 -4 -13 -10
-13 -5 0 -12 -16 -16 -35 -3 -19 -10 -38 -15 -41 -12 -7 -12 -234 0 -234 5 0
12 -18 16 -40 4 -22 11 -42 16 -46 5 -3 9 -13 9 -23 0 -10 7 -24 15 -31 8 -7
15 -21 15 -31 0 -11 4 -19 10 -19 5 0 17 -16 26 -35 17 -36 188 -215 206 -215
5 0 33 -18 63 -40 30 -22 57 -40 60 -40 11 0 135 -121 135 -132 0 -5 85 -8
190 -8 190 0 205 2 282 41 10 5 31 9 47 9 15 0 40 9 54 20 14 11 28 20 32 20
13 0 75 68 75 82 0 9 7 18 15 22 8 3 15 16 15 30 0 13 6 26 13 29 9 3 12 42
12 152 0 110 -3 149 -12 153 -7 2 -13 16 -13 32 0 16 -7 35 -15 44 -8 8 -15
26 -15 40 0 14 -4 27 -9 30 -5 3 -19 25 -31 48 -12 24 -25 45 -29 48 -4 3 -20
23 -37 45 -59 80 -97 121 -139 150 -16 11 -50 39 -75 63 -26 23 -54 42 -64 42
-9 0 -16 4 -16 9 0 12 -121 71 -144 71 -10 0 -24 7 -32 15 -9 8 -28 15 -43 15
-15 0 -32 5 -38 11 -7 7 -55 14 -110 16 -76 3 -104 1 -127 -11z"/>
<path d="M3736 8276 c8 -20 47 -40 94 -47 71 -11 154 -36 158 -48 4 -13 62
-15 62 -2 0 5 10 11 23 13 17 3 13 7 -20 16 -23 7 -48 19 -56 26 -7 7 -24 17
-37 22 -33 11 -27 9 -95 17 -125 15 -134 15 -129 3z"/>
<path d="M5190 8275 c0 -8 5 -15 11 -15 5 0 7 4 4 10 -3 6 1 7 9 4 9 -3 16 -1
16 5 0 6 -9 11 -20 11 -11 0 -20 -7 -20 -15z"/>
<path d="M3660 8220 c0 -6 7 -10 15 -10 8 0 15 2 15 4 0 2 -7 6 -15 10 -8 3
-15 1 -15 -4z"/>
<path d="M4630 8200 c0 -5 5 -10 10 -10 6 0 10 5 10 10 0 6 -4 10 -10 10 -5 0
-10 -4 -10 -10z"/>
<path d="M5190 8189 c0 -24 23 -21 28 4 2 10 -3 17 -12 17 -10 0 -16 -9 -16
-21z"/>
<path d="M6306 8195 c4 -8 10 -15 15 -15 5 0 9 7 9 15 0 8 -7 15 -15 15 -9 0
-12 -6 -9 -15z"/>
<path d="M5276 8179 c-9 -11 -16 -25 -14 -31 2 -6 12 2 22 17 21 33 17 42 -8
14z"/>
<path d="M4070 8160 c0 -5 5 -10 10 -10 6 0 10 5 10 10 0 6 -4 10 -10 10 -5 0
-10 -4 -10 -10z"/>
<path d="M4150 8156 c0 -9 5 -16 10 -16 6 0 10 4 10 9 0 6 -4 13 -10 16 -5 3
-10 -1 -10 -9z"/>
<path d="M4690 8140 c0 -5 5 -10 10 -10 6 0 10 5 10 10 0 6 -4 10 -10 10 -5 0
-10 -4 -10 -10z"/>
<path d="M4408 8123 c12 -2 32 -2 45 0 12 2 2 4 -23 4 -25 0 -35 -2 -22 -4z"/>
<path d="M4490 8090 c0 -33 3 -40 20 -40 17 0 20 7 20 40 0 33 -3 40 -20 40
-17 0 -20 -7 -20 -40z"/>
<path d="M4550 8050 c0 -40 0 -40 39 -40 22 0 41 -5 43 -12 3 -8 14 -5 35 10
40 28 43 28 43 -8 0 -28 2 -30 40 -30 40 0 40 0 40 39 l0 38 -69 7 c-38 4 -81
4 -95 0 -21 -5 -31 -2 -42 15 -23 32 -34 25 -34 -19z"/>
<path d="M4286 8021 c-3 -5 1 -11 9 -15 9 -3 15 0 15 9 0 16 -16 20 -24 6z"/>
<path d="M4408 8023 c12 -2 32 -2 45 0 12 2 2 4 -23 4 -25 0 -35 -2 -22 -4z"/>
<path d="M5110 8019 c0 -5 5 -7 10 -4 6 3 10 8 10 11 0 2 -4 4 -10 4 -5 0 -10
-5 -10 -11z"/>
<path d="M4354 7989 c-3 -6 -2 -15 3 -20 13 -13 73 -20 73 -9 0 5 10 11 23 13
12 2 3 5 -20 6 -24 0 -43 6 -43 11 0 13 -27 13 -36 -1z"/>
<path d="M4440 7935 c0 -9 7 -18 16 -22 8 -3 13 -11 10 -18 -3 -8 2 -11 15 -8
15 4 18 2 13 -11 -4 -10 0 -18 10 -22 23 -9 31 2 16 21 -10 13 -9 15 9 15 30
0 26 12 -14 38 -40 26 -75 29 -75 7z"/>
<path d="M4710 7850 l0 -40 40 0 40 0 0 40 0 40 -40 0 -40 0 0 -40z"/>
<path d="M6570 7881 c0 -6 5 -13 10 -16 6 -3 10 1 10 9 0 9 -4 16 -10 16 -5 0
-10 -4 -10 -9z"/>
<path d="M6640 7850 c0 -22 5 -40 10 -40 6 0 10 18 10 40 0 22 -4 40 -10 40
-5 0 -10 -18 -10 -40z"/>
<path d="M8950 7800 c0 -17 -7 -20 -40 -20 -22 0 -40 -5 -40 -11 0 -6 17 -9
43 -7 32 2 44 8 52 26 11 24 45 31 45 8 0 -18 28 -41 38 -31 4 4 1 10 -5 12
-7 3 -13 13 -13 24 0 16 -7 19 -40 19 -33 0 -40 -3 -40 -20z"/>
<path d="M4620 7796 c0 -10 4 -15 9 -11 6 3 15 -4 21 -15 6 -11 15 -20 21 -20
14 0 39 -26 39 -39 0 -6 16 -11 35 -11 28 0 33 -3 29 -17 -5 -15 -4 -16 5 -3
22 30 12 64 -24 88 -42 27 -45 27 -46 5 0 -14 -2 -13 -9 5 -5 12 -15 22 -22
22 -7 0 -23 3 -35 6 -17 5 -23 2 -23 -10z"/>
<path d="M8790 7750 c0 -20 9 -40 25 -56 14 -14 25 -29 25 -34 0 -6 5 -10 11
-10 15 0 35 -22 43 -48 4 -12 11 -22 16 -22 4 0 11 -11 14 -24 3 -13 16 -30
29 -39 13 -8 44 -35 68 -60 25 -24 55 -47 67 -51 12 -4 22 -12 22 -17 0 -5 6
-9 14 -9 8 0 16 -7 20 -15 3 -8 15 -15 26 -15 11 0 20 -4 20 -8 0 -5 20 -19
45 -31 24 -12 47 -26 50 -32 4 -5 15 -9 26 -9 10 0 19 -4 19 -9 0 -5 14 -12
31 -16 17 -4 47 -18 66 -31 20 -13 45 -24 57 -24 12 0 48 -14 81 -30 33 -16
66 -30 73 -30 6 0 12 -4 12 -10 0 -5 8 -10 19 -10 10 0 24 -7 31 -15 7 -8 25
-15 41 -15 16 0 29 -4 29 -10 0 -5 16 -12 35 -16 19 -3 38 -10 41 -15 3 -5 20
-9 38 -9 19 0 39 -7 46 -15 7 -8 24 -15 39 -15 14 0 35 -7 45 -15 11 -8 30
-15 42 -15 13 0 44 -11 70 -25 26 -14 62 -25 80 -25 19 0 34 -4 34 -10 0 -5
12 -13 27 -16 35 -9 48 -22 67 -69 13 -31 16 -84 16 -299 0 -150 4 -276 10
-296 7 -22 11 -209 12 -485 1 -344 4 -462 14 -503 8 -29 14 -75 14 -101 0 -41
4 -51 25 -65 34 -22 41 -16 50 41 10 68 21 86 45 73 12 -6 20 -21 20 -35 0
-13 5 -27 10 -30 6 -3 10 -14 10 -23 0 -9 6 -29 14 -43 7 -14 16 -37 20 -52 3
-15 11 -27 16 -27 6 0 10 -8 10 -18 0 -10 3 -22 6 -25 11 -10 43 -110 44 -132
0 -11 7 -33 15 -49 8 -15 15 -47 15 -69 0 -65 11 -36 26 70 19 136 18 164 -12
230 -14 32 -30 69 -36 83 -6 14 -14 32 -19 40 -5 8 -12 22 -15 30 -3 8 -10 22
-15 30 -5 8 -12 22 -15 30 -3 8 -12 29 -20 47 -8 17 -14 38 -14 46 0 8 -11 30
-24 50 -13 19 -27 44 -31 56 -3 12 -11 21 -16 21 -5 0 -9 11 -9 24 0 14 -4 28
-10 31 -6 4 -10 160 -11 433 0 235 -5 479 -10 542 -5 63 -13 162 -17 220 -4
58 -13 115 -20 128 -28 49 28 59 73 12 27 -29 65 -41 65 -21 0 5 -5 32 -12 60
-14 61 -39 91 -76 91 -16 0 -32 4 -38 9 -30 28 -127 71 -160 71 -34 0 -117 22
-156 41 -10 5 -26 9 -35 9 -10 0 -27 7 -37 15 -11 8 -30 15 -42 15 -12 0 -35
6 -51 14 -56 29 -144 66 -156 66 -6 0 -21 7 -31 15 -11 8 -30 15 -41 15 -20 0
-61 16 -107 41 -10 5 -27 9 -39 9 -11 0 -33 6 -47 14 -26 13 -58 28 -134 60
-20 9 -38 20 -40 24 -2 4 -43 28 -93 52 -49 25 -92 48 -95 51 -3 3 -26 21 -51
40 -25 19 -69 58 -97 87 -28 29 -54 52 -57 52 -7 0 -26 15 -73 58 -19 17 -40
32 -46 32 -6 0 -16 10 -21 22 -6 13 -18 24 -27 26 -14 3 -18 -3 -18 -28z"/>
<path d="M9082 7731 c-11 -6 -8 -14 12 -36 14 -15 26 -32 26 -36 0 -5 11 -9
25 -9 13 0 28 -7 33 -16 15 -27 47 -13 50 24 2 24 8 32 23 32 12 0 19 -7 19
-20 0 -13 7 -20 20 -20 17 0 20 7 20 40 l0 40 -40 0 c-33 0 -40 -4 -40 -19 0
-12 -9 -20 -26 -24 -20 -3 -27 1 -34 19 -6 14 -18 24 -29 24 -11 0 -25 2 -33
5 -7 3 -19 1 -26 -4z"/>
<path d="M6650 7691 c0 -22 6 -42 13 -45 10 -5 10 -7 0 -12 -28 -13 -3 -64 31
-64 12 0 16 -10 16 -40 l0 -40 50 0 50 0 0 40 c0 22 5 40 10 40 6 0 10 18 10
40 0 33 -3 40 -20 40 -17 0 -20 -7 -20 -40 0 -22 -4 -40 -10 -40 -5 0 -10 18
-10 40 0 33 -3 40 -20 40 -17 0 -20 -7 -20 -40 0 -22 -4 -40 -10 -40 -5 0 -10
5 -10 10 0 6 -9 10 -20 10 -13 0 -20 7 -20 20 0 13 7 20 20 20 11 0 20 5 20
10 0 6 -9 10 -20 10 -17 0 -20 7 -20 40 0 22 -4 40 -10 40 -5 0 -10 -18 -10
-39z"/>
<path d="M8957 7723 c-12 -11 -8 -20 18 -31 23 -11 24 -10 13 13 -11 26 -20
30 -31 18z"/>
<path d="M8630 7670 c0 -13 7 -20 20 -20 23 0 26 10 8 28 -18 18 -28 15 -28
-8z"/>
<path d="M6626 7665 c-3 -8 -1 -15 4 -15 6 0 10 7 10 15 0 8 -2 15 -4 15 -2 0
-6 -7 -10 -15z"/>
<path d="M4850 7641 c0 -6 5 -13 10 -16 6 -3 10 1 10 9 0 9 -4 16 -10 16 -5 0
-10 -4 -10 -9z"/>
<path d="M8791 7634 c0 -11 3 -14 6 -6 3 7 2 16 -1 19 -3 4 -6 -2 -5 -13z"/>
<path d="M9350 7630 c0 -17 -7 -20 -40 -20 -33 0 -40 -3 -40 -20 0 -15 7 -20
25 -20 14 0 25 -5 25 -11 0 -8 5 -8 15 1 10 9 15 9 15 1 0 -6 9 -11 20 -11 11
0 20 5 20 10 0 6 9 10 20 10 17 0 20 7 20 40 l0 40 -40 0 c-33 0 -40 -3 -40
-20z"/>
<path d="M6632 7610 c0 -14 2 -19 5 -12 2 6 2 18 0 25 -3 6 -5 1 -5 -13z"/>
<path d="M8811 7593 c-1 -14 5 -23 14 -23 8 0 15 5 15 11 0 5 -4 8 -9 4 -5 -3
-12 3 -14 12 -4 14 -5 13 -6 -4z"/>
<path d="M4890 7556 c0 -8 5 -18 10 -21 6 -3 10 1 10 9 0 8 -4 18 -10 21 -5 3
-10 -1 -10 -9z"/>
<path d="M4935 7541 c-3 -5 -1 -12 5 -16 5 -3 10 1 10 9 0 18 -6 21 -15 7z"/>
<path d="M6678 7510 c-17 -27 -32 -220 -17 -220 5 0 9 -7 9 -16 0 -10 -6 -14
-15 -10 -8 3 -15 1 -15 -4 0 -6 7 -10 15 -10 11 0 15 -11 15 -40 0 -33 3 -40
20 -40 16 0 20 7 20 34 0 34 1 35 43 39 l42 4 -42 1 c-42 2 -43 3 -43 37 0 19
6 37 14 42 8 4 16 26 19 48 l4 40 1 -42 c2 -40 4 -43 31 -43 26 0 29 3 33 40
2 28 0 40 -9 40 -7 0 -13 3 -13 8 0 4 -18 18 -40 32 -27 16 -43 35 -48 55 l-8
30 -16 -25z"/>
<path d="M5170 7491 c-24 -7 -24 -7 -3 -13 14 -4 24 -1 27 8 3 8 4 14 3 13 -1
-1 -13 -4 -27 -8z"/>
<path d="M9503 7485 c-3 -9 -3 -19 1 -22 3 -4 6 -1 6 5 0 7 16 12 40 12 22 0
40 5 40 10 0 17 -80 12 -87 -5z"/>
<path d="M5078 7483 c6 -2 18 -2 25 0 6 3 1 5 -13 5 -14 0 -19 -2 -12 -5z"/>
<path d="M8670 7410 l0 -80 40 0 40 0 0 80 0 80 -40 0 -40 0 0 -80z"/>
<path d="M6790 7450 c0 -17 7 -20 40 -20 33 0 40 3 40 20 0 17 -7 20 -40 20
-33 0 -40 -3 -40 -20z"/>
<path d="M8940 7444 c0 -8 5 -12 10 -9 6 3 10 10 10 16 0 5 -4 9 -10 9 -5 0
-10 -7 -10 -16z"/>
<path d="M9528 7433 c12 -2 32 -2 45 0 12 2 2 4 -23 4 -25 0 -35 -2 -22 -4z"/>
<path d="M8798 7413 c7 -2 12 -22 12 -44 0 -37 2 -39 30 -39 29 0 30 -2 30
-45 l0 -45 40 0 40 0 0 43 c0 37 -4 46 -25 55 -16 8 -28 23 -31 42 -4 16 -9
30 -13 31 -28 4 -93 6 -83 2z"/>
<path d="M6830 7370 c0 -33 3 -40 20 -40 17 0 20 7 20 40 0 33 -3 40 -20 40
-17 0 -20 -7 -20 -40z"/>
<path d="M6572 7360 c0 -14 2 -19 5 -12 2 6 2 18 0 25 -3 6 -5 1 -5 -13z"/>
<path d="M9045 7340 c-3 -5 -1 -10 4 -10 6 0 11 5 11 10 0 6 -2 10 -4 10 -3 0
-8 -4 -11 -10z"/>
<path d="M9085 7340 c4 -6 11 -8 16 -5 14 9 11 15 -7 15 -8 0 -12 -5 -9 -10z"/>
<path d="M10328 7333 c12 -2 32 -2 45 0 12 2 2 4 -23 4 -25 0 -35 -2 -22 -4z"/>
<path d="M9822 7311 c13 -21 28 -19 28 5 0 8 -9 14 -20 14 -17 0 -19 -3 -8
-19z"/>
<path d="M10088 7323 c12 -2 32 -2 45 0 12 2 2 4 -23 4 -25 0 -35 -2 -22 -4z"/>
<path d="M5297 7301 c-18 -6 -18 -7 0 -23 17 -16 22 -18 43 -18 6 0 10 -7 10
-16 0 -24 76 -94 109 -100 17 -4 32 -16 39 -32 11 -26 12 -26 8 9 -3 27 -16
47 -51 80 -26 24 -52 50 -58 57 -49 54 -61 59 -100 43z"/>
<path d="M10391 7283 c-1 -23 4 -33 14 -33 12 0 13 5 7 18 -5 9 -12 24 -15 32
-3 8 -6 0 -6 -17z"/>
<path d="M6621 7264 c0 -11 3 -14 6 -6 3 7 2 16 -1 19 -3 4 -6 -2 -5 -13z"/>
<path d="M10068 7234 c2 -14 11 -24 21 -24 9 0 27 -3 41 -7 23 -6 24 -6 8 10
-9 9 -24 17 -32 17 -9 0 -16 4 -16 10 0 5 33 11 73 13 l72 3 -86 1 c-85 1 -86
0 -81 -23z"/>
<path d="M5315 7240 c4 -6 11 -8 16 -5 14 9 11 15 -7 15 -8 0 -12 -5 -9 -10z"/>
<path d="M10390 7181 c0 -12 29 -35 36 -28 4 3 -1 13 -9 22 -17 17 -27 19 -27
6z"/>
<path d="M10350 7159 c0 -5 5 -7 10 -4 6 3 10 8 10 11 0 2 -4 4 -10 4 -5 0
-10 -5 -10 -11z"/>
<path d="M9110 7141 c0 -5 -3 -18 -7 -28 -5 -16 -4 -16 14 2 20 20 21 35 2 35
-5 0 -9 -4 -9 -9z"/>
<path d="M5710 7117 c0 -8 -10 -18 -22 -21 -22 -6 -22 -7 -4 -21 23 -18 58 1
54 29 -4 23 -28 34 -28 13z"/>
<path d="M5525 7090 c-8 -12 5 -38 21 -44 11 -4 34 20 34 37 0 9 -50 14 -55 7z"/>
<path d="M6446 7093 c6 -4 13 -16 17 -25 8 -22 21 -23 37 -3 16 19 14 21 -30
29 -19 4 -30 4 -24 -1z"/>
<path d="M9270 7051 c0 -41 0 -41 -39 -41 -33 0 -40 4 -44 23 -3 21 -4 21 -12
3 -6 -13 -5 -21 3 -24 7 -2 12 -21 12 -43 0 -39 0 -39 40 -39 l40 0 0 40 0 40
41 0 40 0 -3 38 c-3 35 -5 37 -40 40 l-38 3 0 -40z"/>
<path d="M10288 7073 c7 -3 16 -2 19 1 4 3 -2 6 -13 5 -11 0 -14 -3 -6 -6z"/>
<path d="M5305 7050 c3 -5 8 -10 11 -10 2 0 4 5 4 10 0 6 -5 10 -11 10 -5 0
-7 -4 -4 -10z"/>
<path d="M9110 7031 c0 -18 -6 -21 -40 -21 l-40 0 0 -40 0 -40 40 0 40 0 0 40
c0 22 5 40 10 40 6 0 10 6 10 14 0 8 -4 18 -10 21 -5 3 -10 -3 -10 -14z"/>
<path d="M5913 7033 c-24 -5 -32 -23 -11 -23 7 0 4 -9 -8 -20 -18 -19 -24 -19
-78 -8 -46 9 -63 9 -78 -1 -15 -9 -23 -9 -34 0 -11 9 -14 8 -14 -5 0 -10 4
-14 10 -11 5 3 21 -5 35 -19 14 -15 37 -26 50 -26 13 0 31 -7 40 -16 14 -15
19 -14 53 2 33 16 34 19 15 22 -28 4 -30 22 -3 22 12 0 20 7 20 16 0 9 11 25
25 36 14 11 25 24 25 29 0 9 -8 10 -47 2z"/>
<path d="M5998 7023 c7 -3 16 -2 19 1 4 3 -2 6 -13 5 -11 0 -14 -3 -6 -6z"/>
<path d="M9490 7019 c0 -5 11 -9 25 -9 14 0 25 4 25 9 0 5 -11 9 -25 9 -14 0
-25 -4 -25 -9z"/>
<path d="M9586 7003 c9 -35 7 -34 24 -23 12 8 11 13 -8 30 l-23 21 7 -28z"/>
<path d="M6150 6999 c0 -5 5 -7 10 -4 6 3 10 8 10 11 0 2 -4 4 -10 4 -5 0 -10
-5 -10 -11z"/>
<path d="M6370 6990 c0 -11 4 -20 9 -20 5 0 12 -10 14 -22 4 -21 4 -21 6 -2 1
13 13 25 36 34 49 19 44 30 -15 30 -43 0 -50 -3 -50 -20z"/>
<path d="M9640 6970 c-14 -3 -20 -8 -15 -12 16 -9 71 -19 59 -11 -6 4 -13 13
-15 19 -2 6 -15 8 -29 4z"/>
<path d="M6310 6955 c0 -11 -11 -15 -42 -15 -33 0 -40 -3 -28 -11 12 -8 10 -9
-10 -5 -14 3 -75 11 -135 18 -83 8 -116 8 -130 0 -19 -11 -19 -11 3 -12 15 0
22 -6 22 -20 0 -11 5 -20 10 -20 6 0 10 -9 10 -20 0 -21 -35 -29 -42 -11 -5
15 -96 17 -110 3 -9 -9 0 -12 40 -12 29 0 52 -4 52 -10 0 -5 -9 -10 -20 -10
-16 0 -20 -7 -20 -36 0 -29 3 -35 16 -30 9 3 33 6 55 6 32 0 39 3 39 20 0 11
5 20 11 20 21 0 39 -29 39 -64 0 -20 3 -36 6 -36 3 0 20 10 37 22 21 15 32 18
35 10 2 -7 21 -12 43 -12 32 0 39 -3 39 -20 0 -13 7 -20 20 -20 17 0 20 7 20
40 l0 40 40 0 c40 0 40 0 40 38 -1 20 -9 53 -20 72 l-19 35 -1 -32 c0 -26 -4
-33 -19 -33 -15 0 -20 9 -23 40 l-4 40 53 0 c46 0 53 3 53 20 0 16 -7 20 -30
20 -20 0 -30 -5 -30 -15z m-80 -65 c0 -18 -7 -20 -80 -20 -73 0 -80 2 -80 20
0 18 7 20 80 20 73 0 80 -2 80 -20z m-160 -50 c0 -5 -11 -10 -25 -10 -14 0
-25 5 -25 10 0 6 11 10 25 10 14 0 25 -4 25 -10z m-80 -20 c0 -5 -4 -10 -10
-10 -5 0 -10 5 -10 10 0 6 5 10 10 10 6 0 10 -4 10 -10z"/>
<path d="M6450 6962 c0 -5 -10 -14 -22 -20 -22 -10 -21 -11 10 -11 26 -1 32 3
32 19 0 11 -4 20 -10 20 -5 0 -10 -4 -10 -8z"/>
<path d="M9591 6948 c-1 -11 -9 -18 -22 -18 -23 0 -21 -18 3 -33 22 -14 48 -1
48 23 0 12 -4 19 -9 15 -5 -3 -12 3 -14 12 -4 17 -5 17 -6 1z"/>
<path d="M5510 6919 c0 -5 5 -7 10 -4 6 3 10 8 10 11 0 2 -4 4 -10 4 -5 0 -10
-5 -10 -11z"/>
<path d="M9350 6885 l0 -45 40 0 40 0 0 45 0 45 -40 0 -40 0 0 -45z"/>
<path d="M9750 6905 c0 -11 11 -15 40 -15 29 0 40 4 40 15 0 11 -11 15 -40 15
-29 0 -40 -4 -40 -15z"/>
<path d="M9843 6898 c-5 -7 -10 -39 -12 -70 l-2 -58 40 0 41 0 0 -40 0 -40 40
0 40 0 0 -80 0 -80 115 0 115 0 0 40 0 40 -75 0 -75 0 0 40 0 40 40 0 c33 0
40 3 40 20 0 17 -7 20 -40 20 -33 0 -40 3 -40 20 0 18 -7 20 -80 20 l-80 0 0
29 c0 25 5 29 43 38 l42 11 -42 1 c-37 1 -43 4 -43 22 0 12 -5 19 -12 16 -7
-2 -20 2 -29 10 -13 11 -18 11 -26 1z"/>
<path d="M9928 6873 c7 -3 16 -2 19 1 4 3 -2 6 -13 5 -11 0 -14 -3 -6 -6z"/>
<path d="M9750 6835 c0 -30 14 -32 32 -6 7 10 22 21 33 24 11 2 1 5 -22 6 -39
1 -43 -1 -43 -24z"/>
<path d="M10038 6843 c20 -3 32 -10 32 -19 0 -8 5 -12 10 -9 20 12 -11 35 -44
33 l-31 -1 33 -4z"/>
<path d="M5730 6760 c0 -5 5 -10 11 -10 5 0 7 5 4 10 -3 6 -8 10 -11 10 -2 0
-4 -4 -4 -10z"/>
<path d="M5790 6765 c0 -3 11 -17 25 -30 31 -32 35 -31 35 5 0 27 -3 30 -30
30 -16 0 -30 -2 -30 -5z"/>
<path d="M6150 6670 c0 -23 10 -26 28 -8 18 18 15 28 -8 28 -13 0 -20 -7 -20
-20z"/>
<path d="M10250 6630 c0 -11 -4 -20 -10 -20 -5 0 -10 -10 -10 -22 0 -18 2 -20
9 -9 7 11 10 7 14 -15 2 -16 5 -4 6 29 0 31 -1 57 -4 57 -3 0 -5 -9 -5 -20z"/>
<path d="M5824 6549 c3 -34 6 -70 6 -80 0 -11 5 -19 10 -19 6 0 10 7 10 16 0
22 28 47 45 40 9 -3 15 0 15 9 0 8 -9 15 -20 15 -17 0 -20 7 -20 40 0 37 -2
40 -26 40 -27 0 -27 0 -20 -61z"/>
<path d="M9600 6570 c0 -22 5 -40 10 -40 6 0 10 18 10 40 0 22 -4 40 -10 40
-5 0 -10 -18 -10 -40z"/>
<path d="M5670 6569 c0 -5 5 -7 10 -4 6 3 10 8 10 11 0 2 -4 4 -10 4 -5 0 -10
-5 -10 -11z"/>
<path d="M5772 6538 c2 -6 10 -14 16 -16 7 -2 10 2 6 12 -7 18 -28 22 -22 4z"/>
<path d="M5870 6403 c0 -17 8 -16 26 1 12 13 12 15 -6 13 -11 -1 -20 -7 -20
-14z"/>
<path d="M5910 6333 c1 -35 18 -73 34 -73 3 0 6 7 6 15 0 8 -7 15 -15 15 -10
0 -15 10 -15 30 0 30 23 43 33 18 3 -7 6 -3 6 10 1 17 -5 22 -24 22 -22 0 -25
-4 -25 -37z"/>
<path d="M5930 6228 c0 -9 -6 -19 -12 -21 -10 -4 -10 -6 0 -6 14 -1 28 26 18
36 -3 4 -6 -1 -6 -9z"/>
<path d="M10100 6172 c0 -23 -4 -42 -10 -42 -5 0 -10 -18 -10 -40 0 -22 4 -40
9 -40 10 0 26 148 17 157 -3 4 -6 -12 -6 -35z"/>
<path d="M1685 6119 c-76 -6 -74 -5 -185 -53 -19 -8 -45 -17 -57 -21 -13 -3
-23 -11 -23 -16 0 -5 -8 -9 -19 -9 -10 0 -24 -7 -31 -15 -7 -8 -19 -15 -27
-15 -20 0 -112 -61 -155 -103 -45 -43 -49 -67 -13 -67 28 0 53 12 105 51 34
25 99 58 188 95 23 10 42 21 42 26 0 4 13 8 28 8 16 0 37 7 48 15 10 8 30 15
45 15 14 0 30 5 35 10 6 6 68 13 139 16 71 3 133 8 138 11 14 9 -15 33 -40 33
-13 0 -32 4 -41 9 -25 13 -98 17 -177 10z"/>
<path d="M6026 6074 c-9 -22 -8 -24 9 -24 8 0 15 9 15 20 0 24 -15 27 -24 4z"/>
<path d="M10230 6029 c0 -11 5 -17 10 -14 6 3 10 13 10 21 0 8 -4 14 -10 14
-5 0 -10 -9 -10 -21z"/>
<path d="M6097 5990 c-4 -15 0 -20 13 -20 13 0 17 5 13 20 -3 11 -9 20 -13 20
-4 0 -10 -9 -13 -20z"/>
<path d="M6017 5976 c-4 -10 -5 -21 -2 -24 9 -9 17 6 13 25 -3 17 -4 17 -11
-1z"/>
<path d="M6310 5910 l0 -60 -40 0 c-33 0 -40 -3 -40 -19 0 -12 -8 -21 -22 -24
l-23 -4 23 -2 c27 -1 30 -31 3 -31 -11 0 -23 -5 -27 -11 -5 -8 3 -10 24 -7 29
4 32 2 37 -26 7 -39 9 -135 4 -161 -3 -14 2 -21 16 -23 25 -3 52 -42 36 -51
-6 -4 -7 -12 -1 -21 6 -8 10 -28 10 -43 0 -15 9 -45 20 -67 21 -42 27 -106 9
-112 -12 -4 27 -58 42 -58 12 0 12 47 -1 55 -5 3 -10 24 -10 45 0 21 5 42 10
45 6 4 10 -8 10 -29 0 -19 6 -37 13 -39 9 -4 9 -7 -1 -15 -10 -7 -7 -13 12
-25 35 -23 49 -22 37 2 -8 14 -7 22 4 31 8 7 15 20 15 29 -1 14 -2 14 -14 -1
-14 -19 -46 -25 -46 -9 0 5 7 17 17 26 11 12 13 19 5 24 -8 5 -10 41 -5 124 5
105 8 117 25 117 11 0 18 -7 18 -20 0 -17 7 -20 40 -20 33 0 40 3 40 20 0 13
-7 20 -20 20 -17 0 -20 7 -20 40 0 33 3 40 20 40 19 0 20 7 20 120 l0 120 -40
0 -40 0 0 -40 0 -40 -61 0 -61 0 7 80 7 80 -26 0 c-25 0 -26 -2 -26 -60z m80
-260 c0 -47 -4 -80 -10 -80 -5 0 -10 17 -10 38 0 45 -19 86 -43 90 -12 3 -17
-3 -17 -21 0 -14 -6 -27 -12 -30 -10 -3 -12 7 -9 39 l3 44 49 0 49 0 0 -80z
m0 -141 c0 -14 -7 -19 -25 -19 -26 0 -33 18 -14 37 16 16 39 5 39 -18z"/>
<path d="M1650 5950 c-8 -5 -29 -10 -46 -10 -53 0 -216 -63 -252 -97 -7 -7
-17 -13 -21 -13 -16 0 -151 -136 -151 -152 0 -24 41 -34 55 -14 7 9 15 16 19
16 4 0 19 11 34 25 15 14 34 25 43 25 9 0 19 6 22 13 5 14 93 60 135 72 12 4
22 11 22 16 0 5 14 9 31 9 17 0 37 7 45 15 9 8 26 15 39 15 12 0 36 7 51 15
16 8 50 15 75 15 32 0 55 7 74 22 26 20 26 22 9 29 -28 11 -167 10 -184 -1z"/>
<path d="M10103 5850 c0 -25 2 -35 4 -22 2 12 2 32 0 45 -2 12 -4 2 -4 -23z"/>
<path d="M6050 5860 c0 -5 5 -10 11 -10 5 0 7 5 4 10 -3 6 -8 10 -11 10 -2 0
-4 -4 -4 -10z"/>
<path d="M6630 5770 c0 -22 5 -40 10 -40 6 0 10 18 10 40 0 22 -4 40 -10 40
-5 0 -10 -18 -10 -40z"/>
<path d="M6133 5734 c-15 -16 -16 -24 -4 -24 8 0 24 30 19 35 -2 2 -9 -3 -15
-11z"/>
<path d="M9768 5333 c12 -2 32 -2 45 0 12 2 2 4 -23 4 -25 0 -35 -2 -22 -4z"/>
<path d="M6376 5155 c4 -8 8 -15 10 -15 2 0 4 7 4 15 0 8 -4 15 -10 15 -5 0
-7 -7 -4 -15z"/>
<path d="M10332 5110 c0 -14 2 -19 5 -12 2 6 2 18 0 25 -3 6 -5 1 -5 -13z"/>
<path d="M6404 5074 c3 -9 6 -18 6 -20 0 -3 5 -2 10 1 16 10 12 35 -6 35 -11
0 -14 -5 -10 -16z"/>
<path d="M10390 4950 c0 -11 4 -20 9 -20 5 0 7 9 4 20 -3 11 -7 20 -9 20 -2 0
-4 -9 -4 -20z"/>
<path d="M10456 4945 c-10 -26 -7 -45 8 -61 20 -19 26 -18 26 6 0 11 -4 20
-10 20 -5 0 -10 5 -10 10 0 6 9 10 21 10 26 0 20 24 -8 28 -12 2 -23 -4 -27
-13z"/>
<path d="M6455 4940 c-3 -5 -1 -10 4 -10 6 0 11 5 11 10 0 6 -2 10 -4 10 -3 0
-8 -4 -11 -10z"/>
<path d="M6710 4860 c0 -5 5 -10 11 -10 5 0 7 5 4 10 -3 6 -8 10 -11 10 -2 0
-4 -4 -4 -10z"/>
<path d="M10485 4847 c-2 -7 -6 -30 -7 -52 -3 -39 -4 -40 -45 -43 -26 -2 -43
1 -43 7 0 6 -8 11 -17 11 -15 0 -14 -2 3 -18 11 -11 42 -21 74 -25 44 -5 60
-12 83 -37 30 -34 47 -32 47 4 0 25 -29 101 -30 78 0 -7 -4 -10 -10 -7 -5 3
-10 23 -10 44 0 31 -4 40 -21 44 -11 3 -22 0 -24 -6z"/>
<path d="M7608 4773 c12 -2 32 -2 45 0 12 2 2 4 -23 4 -25 0 -35 -2 -22 -4z"/>
<path d="M9746 4735 c-4 -20 -4 -40 -1 -45 3 -6 -1 -10 -10 -10 -8 0 -18 7
-20 15 -16 51 -16 51 -29 20 -11 -27 -11 -30 5 -33 10 -2 23 -10 29 -18 7 -8
25 -14 41 -14 22 0 29 -5 29 -19 0 -10 9 -21 20 -24 11 -3 20 -12 20 -21 0
-12 10 -16 35 -16 41 0 93 -20 117 -44 10 -9 48 -24 85 -32 92 -21 150 -43
191 -71 19 -12 39 -23 43 -23 5 0 9 -7 9 -15 0 -11 11 -15 40 -15 33 0 40 4
40 19 0 10 -7 21 -15 25 -8 3 -15 11 -15 18 0 7 -21 26 -46 42 -28 18 -43 34
-40 42 4 10 -4 14 -26 14 -17 0 -45 4 -62 9 -86 26 -110 30 -117 19 -5 -7 -18
-3 -40 13 -19 12 -36 26 -39 30 -3 4 -40 10 -82 14 -56 5 -78 11 -78 21 0 8
-9 14 -20 14 -13 0 -20 7 -20 20 0 11 -4 20 -10 20 -5 0 -10 18 -10 40 0 49
-15 52 -24 5z"/>
<path d="M10641 4724 c0 -11 3 -14 6 -6 3 7 2 16 -1 19 -3 4 -6 -2 -5 -13z"/>
<path d="M9990 4690 c0 -5 17 -10 38 -10 30 0 45 -7 65 -29 32 -36 72 -45 179
-39 45 3 102 1 127 -4 59 -11 101 -2 101 21 0 34 -41 44 -119 31 -52 -9 -84
-9 -121 -1 -28 6 -75 11 -105 11 -60 0 -84 16 -33 23 18 2 -4 5 -49 5 -50 1
-83 -2 -83 -8z"/>
<path d="M10631 4674 c0 -11 3 -14 6 -6 3 7 2 16 -1 19 -3 4 -6 -2 -5 -13z"/>
<path d="M10530 4620 c0 -5 6 -10 13 -10 8 0 9 -3 1 -8 -6 -4 -16 -17 -23 -30
-11 -21 -18 -23 -82 -21 -77 2 -96 -7 -76 -35 18 -24 105 -25 138 -2 13 9 33
16 45 16 31 0 38 28 17 67 -17 32 -33 43 -33 23z"/>
<path d="M7615 4609 c-150 -7 -264 -21 -306 -37 -32 -13 -240 -19 -258 -8 -8
5 -16 4 -21 -4 -6 -10 -15 -8 -38 9 -17 11 -33 21 -36 21 -3 0 -6 -31 -6 -70
0 -40 4 -70 10 -70 6 0 10 18 10 40 0 39 1 40 36 40 27 0 37 -5 41 -19 3 -12
15 -21 32 -23 46 -5 410 8 576 22 130 10 178 10 260 0 55 -7 150 -17 210 -21
141 -10 187 -18 178 -32 -3 -5 -1 -7 5 -4 10 7 71 -20 83 -36 11 -15 39 5 39
27 0 23 -43 69 -54 58 -4 -3 -19 6 -34 20 -23 22 -40 27 -117 33 -49 4 -102
13 -117 21 -15 8 -41 14 -58 14 -17 0 -39 4 -48 9 -25 12 -228 18 -387 10z"/>
<path d="M7055 4600 c3 -5 8 -10 11 -10 2 0 4 5 4 10 0 6 -5 10 -11 10 -5 0
-7 -4 -4 -10z"/>
<path d="M7100 4600 c0 -5 5 -10 11 -10 5 0 7 5 4 10 -3 6 -8 10 -11 10 -2 0
-4 -4 -4 -10z"/>
<path d="M8208 4593 c7 -3 16 -2 19 1 4 3 -2 6 -13 5 -11 0 -14 -3 -6 -6z"/>
<path d="M6781 4564 c-1 -23 21 -48 32 -37 12 12 7 33 -7 33 -8 0 -17 6 -19
13 -3 6 -6 2 -6 -9z"/>
<path d="M10661 4544 c0 -11 3 -14 6 -6 3 7 2 16 -1 19 -3 4 -6 -2 -5 -13z"/>
<path d="M9645 4540 c-3 -5 -17 -10 -31 -10 -21 0 -24 -4 -24 -40 l0 -40 40 0
40 0 0 -82 0 -83 45 0 c33 0 45 4 46 15 0 10 2 11 6 3 2 -7 11 -13 19 -13 17
0 17 5 3 29 -9 13 -9 23 -1 37 10 17 11 17 23 -9 7 -15 16 -27 21 -27 5 0 6
-4 3 -10 -3 -5 0 -10 9 -10 14 0 76 -29 86 -41 3 -3 12 -8 20 -12 30 -13 100
-67 124 -95 6 -7 24 -25 41 -40 77 -70 235 -233 235 -243 0 -6 25 -36 55 -66
30 -30 55 -60 55 -66 0 -7 7 -20 15 -30 12 -17 15 -14 31 37 20 65 16 80 -47
142 -30 30 -38 47 -39 74 0 31 11 45 105 138 l106 102 19 88 c28 125 27 135
-11 92 -17 -19 -64 -69 -105 -111 -41 -43 -74 -81 -74 -85 0 -5 -14 -24 -30
-43 -17 -18 -30 -38 -30 -42 0 -18 -35 -49 -55 -49 -12 0 -46 27 -85 68 -89
93 -192 171 -260 198 -8 3 -22 10 -30 15 -8 5 -26 14 -40 20 -32 13 -66 30
-113 57 -21 12 -44 22 -52 22 -8 0 -15 5 -15 10 0 6 -9 10 -20 10 -17 0 -20 7
-20 40 0 33 -3 40 -20 40 -11 0 -20 5 -20 10 0 6 -4 10 -9 10 -6 0 -13 -4 -16
-10z m112 -207 c-3 -10 -5 -4 -5 12 0 17 2 24 5 18 2 -7 2 -21 0 -30z"/>
<path d="M6770 4506 c0 -10 -6 -13 -15 -10 -8 4 -15 1 -15 -5 0 -16 25 -14 39
3 8 10 9 16 1 21 -5 3 -10 -1 -10 -9z"/>
<path d="M6808 4443 c12 -2 32 -2 45 0 12 2 2 4 -23 4 -25 0 -35 -2 -22 -4z"/>
<path d="M5990 4420 c0 -5 5 -10 11 -10 5 0 7 5 4 10 -3 6 -8 10 -11 10 -2 0
-4 -4 -4 -10z"/>
<path d="M7208 4423 c12 -2 32 -2 45 0 12 2 2 4 -23 4 -25 0 -35 -2 -22 -4z"/>
<path d="M6706 4404 c-9 -22 -8 -24 9 -18 8 4 15 2 15 -4 0 -6 -6 -13 -12 -15
-7 -3 24 -6 70 -6 45 -1 82 3 82 7 0 5 -16 9 -35 9 -22 0 -44 8 -58 21 -27 26
-62 29 -71 6z"/>
<path d="M6630 4390 c0 -5 5 -10 11 -10 5 0 7 5 4 10 -3 6 -8 10 -11 10 -2 0
-4 -4 -4 -10z"/>
<path d="M10413 4378 c-17 -8 -23 -20 -23 -42 l0 -31 21 33 c12 17 29 32 40
32 10 0 19 5 19 10 0 13 -29 12 -57 -2z"/>
<path d="M6190 4370 l-45 -7 40 -1 c22 0 49 3 60 8 23 10 9 10 -55 0z"/>
<path d="M6389 4367 c5 -5 26 -7 47 -5 l39 3 -47 5 c-26 3 -43 1 -39 -3z"/>
<path d="M7758 4373 c7 -3 16 -2 19 1 4 3 -2 6 -13 5 -11 0 -14 -3 -6 -6z"/>
<path d="M5827 4352 c1 -8 3 -18 3 -23 0 -5 18 -9 40 -9 29 0 40 -4 40 -15 0
-8 5 -15 10 -15 6 0 10 15 10 34 0 19 -4 38 -10 41 -5 3 -10 1 -10 -4 0 -12
-76 -15 -83 -3 -2 4 -2 1 0 -6z"/>
<path d="M6470 4341 c0 -8 52 -31 71 -31 21 0 6 19 -22 29 -39 13 -49 14 -49
2z"/>
<path d="M5608 4323 c7 -3 16 -2 19 1 4 3 -2 6 -13 5 -11 0 -14 -3 -6 -6z"/>
<path d="M5990 4310 c0 -13 7 -20 20 -20 23 0 26 10 8 28 -18 18 -28 15 -28
-8z"/>
<path d="M5646 4301 c-8 -12 25 -19 48 -11 18 6 18 7 2 13 -24 10 -44 9 -50
-2z"/>
<path d="M7590 4290 c0 -5 18 -10 40 -10 22 0 40 5 40 10 0 6 -18 10 -40 10
-22 0 -40 -4 -40 -10z"/>
<path d="M6888 4283 c12 -2 32 -2 45 0 12 2 2 4 -23 4 -25 0 -35 -2 -22 -4z"/>
<path d="M7388 4283 c23 -2 61 -2 85 0 23 2 4 4 -43 4 -47 0 -66 -2 -42 -4z"/>
<path d="M9830 4241 c0 -5 7 -12 16 -15 14 -5 15 -4 4 9 -14 17 -20 19 -20 6z"/>
<path d="M5428 4156 c-5 -24 -4 -25 24 -10 30 16 29 34 -1 34 -12 0 -20 -9
-23 -24z"/>
<path d="M5338 4164 c6 -3 12 -10 12 -16 0 -15 -27 -38 -44 -38 -9 0 -16 -5
-16 -11 0 -5 -4 -7 -10 -4 -6 3 -10 -4 -10 -16 0 -20 -4 -21 -50 -17 -28 3
-53 1 -56 -4 -3 -5 -25 -8 -47 -6 -37 3 -42 0 -45 -19 -2 -15 -10 -23 -23 -23
-10 0 -19 -7 -19 -15 0 -11 -11 -15 -40 -15 -22 0 -40 -4 -40 -10 0 -11 87
-13 179 -4 l61 7 0 38 c0 32 3 39 20 39 17 0 20 -7 20 -40 l0 -40 40 0 c39 0
40 1 40 36 0 38 18 64 45 64 14 0 16 -7 10 -50 -6 -47 -5 -50 15 -50 18 0 20
4 14 23 -4 12 -7 46 -6 76 2 35 -2 57 -10 62 -7 5 -13 14 -13 21 0 7 -9 14
-20 15 -11 2 -14 0 -7 -3z m-228 -174 c0 -13 -7 -20 -20 -20 -13 0 -20 7 -20
20 0 13 7 20 20 20 13 0 20 -7 20 -20z"/>
<path d="M5253 4138 c-2 -5 10 -8 26 -8 17 0 31 4 31 9 0 11 -50 9 -57 -1z"/>
<path d="M5590 4090 l0 -40 -40 0 -40 0 0 -40 0 -40 40 0 c35 0 40 3 40 23 0
12 9 28 20 35 15 9 20 23 20 57 0 38 -3 45 -20 45 -17 0 -20 -7 -20 -40z"/>
<path d="M7608 4123 c12 -2 32 -2 45 0 12 2 2 4 -23 4 -25 0 -35 -2 -22 -4z"/>
<path d="M9830 4090 l0 -40 40 0 40 0 0 -80 0 -80 40 0 c38 0 40 -2 40 -30 0
-28 2 -30 40 -30 53 0 51 -18 -2 -23 l-43 -4 43 -1 c30 -1 42 -6 42 -17 0 -11
11 -15 40 -15 33 0 40 -3 40 -20 0 -11 5 -20 10 -20 6 0 10 18 10 40 0 36 -3
40 -25 40 -30 0 -75 43 -75 73 0 15 -13 30 -40 47 -22 14 -40 28 -40 32 0 5
-10 8 -21 8 -20 0 -21 4 -16 54 5 55 -4 79 -29 69 -9 -3 -14 2 -14 16 0 18 -6
21 -40 21 l-40 0 0 -40z"/>
<path d="M5117 4083 c-4 -3 -7 -11 -7 -17 0 -6 5 -5 12 2 6 6 9 14 7 17 -3 3
-9 2 -12 -2z"/>
<path d="M5020 4069 c0 -5 5 -7 10 -4 6 3 10 8 10 11 0 2 -4 4 -10 4 -5 0 -10
-5 -10 -11z"/>
<path d="M4865 4051 c-3 -5 0 -13 6 -17 7 -4 9 -3 5 4 -3 5 0 13 6 15 9 4 10
6 1 6 -6 1 -14 -3 -18 -8z"/>
<path d="M5420 4033 c0 -10 -3 -28 -6 -40 -6 -20 -3 -23 25 -23 30 0 31 2 31
40 0 36 -2 40 -25 40 -17 0 -25 -6 -25 -17z"/>
<path d="M6008 4043 c12 -2 32 -2 45 0 12 2 2 4 -23 4 -25 0 -35 -2 -22 -4z"/>
<path d="M4843 3951 l-22 -19 22 -6 c22 -5 67 17 67 34 0 17 -44 10 -67 -9z"/>
<path d="M5768 3963 c12 -2 32 -2 45 0 12 2 2 4 -23 4 -25 0 -35 -2 -22 -4z"/>
<path d="M10230 3940 c0 -5 5 -10 11 -10 5 0 7 5 4 10 -3 6 -8 10 -11 10 -2 0
-4 -4 -4 -10z"/>
<path d="M5288 3883 c12 -2 32 -2 45 0 12 2 2 4 -23 4 -25 0 -35 -2 -22 -4z"/>
<path d="M4683 3854 c-3 -9 3 -24 14 -35 19 -19 19 -19 15 16 -4 37 -18 46
-29 19z"/>
<path d="M4630 3844 c0 -8 5 -12 10 -9 6 4 8 11 5 16 -9 14 -15 11 -15 -7z"/>
<path d="M4385 3810 c-3 -5 1 -10 9 -10 9 0 16 5 16 10 0 6 -4 10 -9 10 -6 0
-13 -4 -16 -10z"/>
<path d="M4522 3758 c-20 -20 -14 -28 24 -28 28 0 35 3 32 18 -4 21 -39 27
-56 10z"/>
<path d="M4281 3632 c-6 -11 -13 -12 -27 -4 -25 13 -57 -3 -50 -26 4 -12 -8
-25 -44 -44 -34 -19 -50 -34 -50 -48 0 -11 -5 -20 -11 -20 -5 0 -8 4 -5 9 4 5
-3 7 -14 4 -11 -3 -23 -10 -27 -16 -3 -6 -1 -7 5 -3 7 4 12 2 12 -3 0 -6 -4
-11 -10 -11 -5 0 -10 -9 -10 -20 0 -12 7 -20 16 -20 15 0 65 31 92 57 8 7 22
18 33 23 10 6 19 21 19 33 0 28 47 58 78 50 12 -3 22 -9 22 -14 0 -5 5 -9 10
-9 6 0 10 18 10 39 0 34 -3 40 -21 38 -11 -1 -24 -8 -28 -15z"/>
<path d="M4370 3610 c0 -22 5 -40 10 -40 6 0 10 18 10 40 0 22 -4 40 -10 40
-5 0 -10 -18 -10 -40z"/>
<path d="M4222 3518 c-22 -22 -13 -28 38 -28 43 0 50 3 50 20 0 16 -7 20 -38
20 -21 0 -43 -5 -50 -12z"/>
<path d="M3991 3394 c0 -11 3 -14 6 -6 3 7 2 16 -1 19 -3 4 -6 -2 -5 -13z"/>
<path d="M3855 3271 c-3 -5 -1 -12 5 -16 5 -3 10 1 10 9 0 18 -6 21 -15 7z"/>
<path d="M4108 3083 c23 -2 61 -2 85 0 23 2 4 4 -43 4 -47 0 -66 -2 -42 -4z"/>
<path d="M3680 3064 c0 -8 -4 -13 -9 -10 -4 3 -13 -6 -20 -20 -14 -31 -14 -34
0 -34 5 0 7 5 4 10 -3 6 0 11 7 12 7 0 18 2 23 3 6 2 15 3 20 4 6 0 10 12 10
26 0 17 -5 25 -17 25 -10 0 -18 -7 -18 -16z"/>
<path d="M3780 3021 c-7 -15 -7 -21 0 -21 12 0 25 28 17 36 -3 3 -10 -4 -17
-15z"/>
<path d="M5350 2975 l0 -45 40 0 40 0 0 45 0 45 -40 0 -40 0 0 -45z"/>
<path d="M5590 2970 l0 -40 40 0 c33 0 40 -3 40 -20 0 -17 7 -20 40 -20 22 0
40 -4 40 -10 0 -6 -33 -10 -80 -10 -73 0 -80 2 -80 20 0 18 -7 20 -77 21 -119
1 -157 -2 -166 -14 -6 -9 -10 -9 -14 1 -2 6 -11 12 -19 12 -9 0 -13 4 -9 9 6
11 -74 25 -101 18 -11 -3 0 -5 24 -6 30 -1 42 -5 42 -16 0 -12 -20 -15 -120
-15 -67 0 -120 -4 -120 -9 0 -6 61 -7 150 -4 149 6 150 6 150 -15 0 -20 5 -22
60 -22 32 0 71 5 85 12 19 8 28 9 33 1 7 -11 99 -17 240 -14 l82 1 0 80 0 80
-120 0 -120 0 0 -40z"/>
<path d="M6230 2971 l0 -39 83 -7 c45 -4 100 -5 122 -3 22 3 3 5 -42 6 l-83 2
0 40 0 40 -40 0 c-40 0 -40 0 -40 -39z"/>
<path d="M3810 2980 c0 -5 5 -10 10 -10 6 0 10 5 10 10 0 6 -4 10 -10 10 -5 0
-10 -4 -10 -10z"/>
<path d="M3830 2943 c0 -13 2 -23 4 -23 2 0 11 -3 20 -6 10 -4 16 -1 16 7 0 7
-3 9 -7 5 -4 -3 -13 4 -20 16 l-12 23 -1 -22z"/>
<path d="M4870 2890 c0 -22 16 -26 40 -10 13 9 13 11 0 20 -24 16 -40 12 -40
-10z"/>
<path d="M5970 2841 c0 -6 5 -13 10 -16 6 -3 10 -2 10 4 0 5 19 12 43 14 40 3
40 4 -10 5 -29 1 -53 -2 -53 -7z"/>
<path d="M5360 2830 c0 -5 7 -10 16 -10 8 0 12 5 9 10 -3 6 -10 10 -16 10 -5
0 -9 -4 -9 -10z"/>
<path d="M6070 2815 c0 -9 6 -12 15 -9 8 4 15 7 15 9 0 2 -7 5 -15 9 -9 3 -15
0 -15 -9z"/>
<path d="M5260 2802 c0 -12 19 -26 26 -19 2 2 -2 10 -11 17 -9 8 -15 8 -15 2z"/>
<path d="M4238 2783 c6 -2 18 -2 25 0 6 3 1 5 -13 5 -14 0 -19 -2 -12 -5z"/>
<path d="M6208 2713 c6 -2 18 -2 25 0 6 3 1 5 -13 5 -14 0 -19 -2 -12 -5z"/>
<path d="M6795 2615 c23 -8 83 -10 79 -3 -3 4 -24 8 -47 7 -23 0 -37 -2 -32
-4z"/>
<path d="M7062 2368 c3 -7 15 -15 27 -16 16 -3 22 1 19 10 -3 7 -15 15 -27 16
-16 3 -22 -1 -19 -10z"/>
<path d="M6983 2293 c9 -2 25 -2 35 0 9 3 1 5 -18 5 -19 0 -27 -2 -17 -5z"/>
<path d="M7128 2203 c12 -2 32 -2 45 0 12 2 2 4 -23 4 -25 0 -35 -2 -22 -4z"/>
<path d="M6363 1967 c-14 -6 -23 -19 -23 -32 0 -11 -5 -26 -11 -32 -8 -8 -5
-13 12 -18 78 -23 130 -58 223 -147 32 -32 63 -58 68 -58 13 0 67 -61 74 -82
3 -10 10 -18 15 -18 5 0 9 -7 9 -15 0 -8 7 -15 15 -15 8 0 15 -5 15 -10 0 -6
10 -21 23 -33 25 -25 87 -114 87 -125 0 -4 11 -19 24 -33 13 -14 27 -35 30
-47 4 -12 12 -22 17 -22 5 0 9 -7 9 -16 0 -13 50 -94 70 -114 3 -3 14 -23 25
-45 11 -22 23 -41 28 -43 4 -2 7 -11 7 -21 0 -9 7 -26 15 -37 8 -10 15 -28 15
-39 0 -11 7 -29 15 -39 8 -11 15 -30 15 -42 0 -13 5 -26 10 -29 6 -3 10 -17
10 -29 0 -13 7 -29 15 -36 8 -7 15 -20 15 -30 0 -10 7 -23 15 -30 8 -7 15 -20
15 -30 0 -15 17 -59 41 -102 5 -10 9 -31 9 -48 0 -18 6 -33 15 -36 9 -4 15
-19 15 -37 0 -36 30 -107 44 -107 18 1 79 34 77 43 0 4 -1 16 -1 28 0 11 -4
18 -9 15 -5 -3 -11 13 -14 36 -3 24 -11 44 -16 46 -6 2 -11 12 -11 22 0 10 -7
31 -15 46 -8 16 -15 39 -15 51 0 12 -4 24 -9 27 -4 3 -11 24 -15 46 -3 22 -11
40 -16 40 -6 0 -10 11 -10 24 0 21 -26 82 -40 96 -3 3 -17 29 -30 58 -14 28
-28 52 -32 52 -5 0 -8 9 -8 20 0 11 -4 28 -9 38 -5 9 -20 41 -32 70 -13 28
-27 52 -31 52 -5 0 -8 9 -8 20 0 23 -57 120 -71 120 -5 0 -9 8 -9 18 0 9 -10
29 -22 43 -29 32 -47 59 -54 82 -4 9 -10 17 -14 17 -5 0 -19 17 -31 38 -13 20
-37 52 -54 71 -120 134 -169 184 -225 230 -14 11 -30 25 -37 31 -7 5 -19 10
-26 10 -8 0 -20 7 -27 15 -7 8 -21 15 -31 15 -11 0 -19 4 -19 9 0 5 -12 14
-27 20 -32 12 -58 31 -64 47 -3 8 -11 8 -26 1z"/>
<path d="M6676 1955 c-21 -16 -13 -35 15 -35 10 0 19 -7 19 -15 0 -8 6 -15 13
-15 13 0 54 -36 100 -89 30 -35 80 -43 91 -15 7 19 -2 37 -15 29 -5 -4 -9 12
-9 34 l0 41 -50 0 c-27 0 -50 4 -50 8 0 5 -18 17 -40 28 -22 10 -40 25 -40 32
0 16 -10 15 -34 -3z"/>
<path d="M1468 1923 c7 -3 16 -2 19 1 4 3 -2 6 -13 5 -11 0 -14 -3 -6 -6z"/>
<path d="M1395 1910 l-119 -5 74 -85 c106 -123 387 -400 517 -512 670 -576
1468 -976 2348 -1177 278 -64 619 -110 860 -116 94 -2 161 -2 150 1 -129 36
-424 163 -433 185 -2 5 -8 9 -12 9 -12 0 -94 55 -155 104 -51 41 -245 232
-302 297 -64 75 -175 270 -220 389 -37 99 -90 269 -103 330 -12 55 -8 365 6
477 5 49 4 52 -18 57 -12 3 -184 8 -382 11 -197 3 -362 7 -365 10 -11 6 -536
14 -1139 16 -304 1 -555 6 -558 11 -3 4 -11 7 -17 6 -7 -1 -66 -4 -132 -8z"/>
<path d="M4724 1839 c-7 -13 32 -48 54 -49 7 0 15 -7 19 -16 3 -8 16 -19 29
-24 17 -7 25 -22 34 -65 6 -31 9 -63 6 -71 -7 -17 19 -211 39 -299 51 -215
179 -440 318 -559 92 -78 276 -146 396 -146 98 0 284 58 372 117 23 15 49 33
58 38 9 6 43 38 77 72 71 71 118 103 155 103 34 0 100 -30 218 -98 173 -99
195 -112 241 -134 25 -12 47 -25 50 -28 3 -4 25 -17 50 -31 57 -31 89 -67 90
-100 1 -70 -196 -235 -430 -361 -36 -19 -74 -39 -85 -46 -11 -6 -45 -22 -75
-37 -40 -19 -47 -24 -25 -21 17 3 48 8 70 12 151 23 619 152 806 221 91 34
115 52 89 68 -5 3 -10 24 -10 46 0 21 -4 39 -9 39 -5 0 -12 16 -15 36 -4 19
-14 38 -22 41 -13 5 -14 15 -9 51 6 38 4 44 -9 39 -11 -4 -15 -1 -14 11 3 41
-2 55 -15 43 -19 -15 -28 -3 -20 27 5 21 3 24 -11 19 -15 -6 -17 -2 -16 28 0
3 -9 15 -20 27 -11 13 -33 48 -48 80 -15 32 -33 58 -39 58 -7 0 -13 5 -13 10
0 6 -6 10 -12 10 -7 0 -35 20 -63 45 -27 25 -54 45 -61 45 -6 0 -22 8 -35 19
-13 10 -35 22 -49 26 -14 4 -43 19 -64 33 -40 25 -191 109 -256 143 -50 25
-90 66 -91 92 -1 12 0 39 1 60 2 51 -19 214 -33 252 -6 17 -25 53 -44 81 -18
28 -33 59 -33 68 0 23 -27 31 -47 15 -11 -10 -48 -14 -117 -16 -56 0 -107 -1
-114 -2 -18 -1 -6 -57 19 -93 25 -35 59 -191 59 -272 0 -109 -33 -239 -70
-276 -3 -3 -11 -16 -18 -30 -29 -56 -85 -101 -192 -155 -47 -24 -67 -28 -140
-28 -130 0 -208 29 -286 107 -111 112 -162 216 -172 352 -6 99 33 269 68 294
13 9 30 49 30 70 0 38 -26 52 -113 59 -146 14 -444 13 -453 0z"/>
<path d="M6933 1763 c-7 -3 -13 -10 -13 -17 0 -18 37 -49 49 -41 10 5 62 -37
61 -50 -1 -28 2 -34 15 -29 10 4 21 -5 32 -25 13 -23 25 -31 46 -31 15 0 27
-4 27 -10 0 -5 9 -10 20 -10 13 0 20 -7 20 -20 0 -13 -7 -20 -20 -20 -13 0
-20 7 -20 20 0 11 -6 20 -14 20 -8 0 -21 3 -30 6 -12 4 -16 0 -16 -15 0 -16 8
-23 30 -27 17 -4 30 -10 30 -15 0 -5 9 -9 20 -9 11 0 20 -4 20 -10 0 -5 -18
-10 -40 -10 -38 0 -40 -2 -40 -30 0 -20 5 -30 15 -30 8 0 15 -6 15 -14 0 -9
17 -16 45 -20 39 -6 45 -10 45 -32 0 -13 5 -24 10 -24 6 0 10 -16 10 -35 0
-19 5 -35 10 -35 6 0 10 -18 10 -40 l0 -40 40 0 40 0 0 40 c0 33 -3 40 -20 40
-17 0 -20 7 -20 40 0 33 3 40 20 40 30 0 24 12 -17 39 -24 15 -38 20 -41 12
-2 -6 -12 -11 -23 -11 -17 0 -19 8 -19 60 0 53 2 60 20 60 17 0 20 7 20 45 l0
45 -40 0 c-22 0 -40 4 -40 10 0 5 -12 21 -26 35 -20 20 -33 25 -56 21 -24 -4
-31 0 -35 14 -3 11 -14 22 -24 25 -10 4 -19 15 -19 26 0 11 -7 19 -16 19 -9 0
-23 8 -30 18 -13 16 -13 16 -14 0 0 -24 -18 -23 -22 0 -2 11 -9 17 -15 15z"/>
<path d="M7270 1720 c0 -5 5 -10 10 -10 6 0 10 5 10 10 0 6 -4 10 -10 10 -5 0
-10 -4 -10 -10z"/>
<path d="M7330 1660 c0 -5 5 -10 10 -10 6 0 10 5 10 10 0 6 -4 10 -10 10 -5 0
-10 -4 -10 -10z"/>
<path d="M7510 776 c0 -40 6 -88 13 -105 14 -32 27 -32 27 1 0 26 28 22 33 -4
l4 -23 2 23 c1 15 7 22 21 22 17 0 20 7 20 40 0 33 -3 40 -20 40 -17 0 -20 7
-20 40 l0 40 -40 0 -40 0 0 -74z"/>
<path d="M7670 810 c0 -33 3 -40 20 -40 17 0 20 7 20 40 0 33 -3 40 -20 40
-17 0 -20 -7 -20 -40z"/>
<path d="M7670 590 l0 -60 -30 0 c-23 0 -30 -5 -30 -19 0 -19 1 -19 50 2 50
21 50 21 50 67 0 43 -13 70 -32 70 -4 0 -8 -27 -8 -60z"/>
<path d="M7528 533 c12 -2 32 -2 45 0 12 2 2 4 -23 4 -25 0 -35 -2 -22 -4z"/>
</g>
</svg>
